<svg width="81" height="80" viewBox="0 0 81 80" fill="none" xmlns="http://www.w3.org/2000/svg">
<path d="M67.0425 40C72.8725 33.095 75.1575 26.28 72.435 21.5625C69.7125 16.845 62.6675 15.415 53.7725 17.01C50.7075 8.51 45.95 3.125 40.5025 3.125C35.0425 3.125 30.2775 8.535 27.2125 17.065C26.3425 16.9075 25.435 16.6775 24.595 16.5775C16.67 15.6425 10.9725 17.4025 8.57001 21.5625C6.16751 25.7225 7.48001 31.5375 12.2675 37.935C12.785 38.6275 13.45 39.31 14.035 40C13.45 40.69 12.785 41.3725 12.2675 42.065C7.48001 48.4625 6.17001 54.2775 8.57001 58.4375C10.9575 61.6825 14.7625 63.7675 19.055 63.7675C19.6075 63.7675 20.15 63.7325 20.685 63.6675L20.6225 63.675C22.03 63.67 23.4075 63.58 24.7625 63.41L24.5975 63.4275C25.4375 63.3275 26.345 63.095 27.215 62.9375C30.28 71.47 35.045 76.88 40.505 76.88C45.9525 76.88 50.71 71.495 53.775 62.9975C55.725 63.38 57.98 63.6125 60.2825 63.6325H60.3C60.78 63.695 61.3325 63.73 61.895 63.73C66.1975 63.73 70.0175 61.6675 72.42 58.475L72.445 58.4425C75.1675 53.725 72.8775 46.91 67.0475 40.005L67.0425 40ZM60.345 20.1325C64.7775 20.1325 67.9525 21.2925 69.1875 23.4375C70.88 26.3675 69.0725 31.5175 64.435 37.16C62.1175 34.8275 59.6325 32.67 56.995 30.705L56.82 30.58C56.3875 26.815 55.7175 23.4375 54.8 20.1625L54.91 20.625C56.535 20.3275 58.4125 20.15 60.33 20.1325H60.345ZM47.0625 51.3625C44.875 52.6275 42.6725 53.735 40.4775 54.7425C38.34 53.7625 36.155 52.645 33.9375 51.3625C31.75 50.1 29.69 48.7475 27.72 47.35C27.5 45.01 27.375 42.56 27.375 40C27.375 37.44 27.5 34.9875 27.72 32.6475C29.6875 31.25 31.75 29.895 33.9375 28.6325C36.1625 27.3475 38.3525 26.245 40.495 25.2625C42.685 26.2675 44.88 27.3725 47.0625 28.6325C49.2925 29.92 51.3525 31.265 53.2775 32.635C53.5 34.98 53.625 37.435 53.625 40C53.625 42.565 53.5 45.02 53.2775 47.3625C51.3525 48.7325 49.2925 50.075 47.0625 51.3625ZM52.6175 52.3525C52.205 54.8425 51.7225 56.9475 51.1325 59.005L51.235 58.5925C48.7225 57.9475 46.665 57.28 44.6625 56.505L45.0625 56.64C46.3575 55.98 47.655 55.355 48.94 54.615C50.21 53.8825 51.4275 53.1225 52.6175 52.3525ZM35.85 56.675C34.2775 57.305 32.2525 57.9675 30.1825 58.5225L29.77 58.615C29.27 56.9375 28.7825 54.795 28.415 52.615L28.3675 52.27C29.5875 53.0625 30.775 53.8725 32.06 54.615C33.325 55.345 34.5875 56.0317 35.8475 56.675H35.85ZM23.745 44.3175C22.0225 42.9075 20.475 41.4975 19.005 40.0075L18.9975 40C20.4725 38.505 22.02 37.0925 23.64 35.765L23.745 35.6825C23.6725 37.0975 23.625 38.535 23.625 40C23.625 41.465 23.6725 42.9 23.745 44.3175ZM32.0625 25.385C30.7775 26.1275 29.5875 26.9375 28.37 27.73C28.785 25.205 29.275 23.0625 29.875 20.97L29.7725 21.385C32.2575 22.035 34.285 22.7 36.2625 23.4675L35.86 23.33C34.5975 23.975 33.33 24.6525 32.0625 25.385ZM45.04 23.35C46.6525 22.7125 48.7175 22.05 50.83 21.5025L51.235 21.4125C51.725 23.055 52.205 25.16 52.57 27.3025L52.6175 27.6475C51.4275 26.8775 50.2075 26.1175 48.9375 25.385C47.6475 24.64 46.3425 24.0125 45.04 23.3475V23.35ZM57.2575 35.7175C58.9575 37.115 60.4875 38.515 61.9375 39.9925L61.945 40C60.485 41.485 58.9575 42.8825 57.3575 44.2L57.2575 44.28C57.33 42.875 57.375 41.4525 57.375 40C57.375 38.5475 57.33 37.1225 57.2575 35.7175ZM40.5 6.875C43.8925 6.875 47.49 10.96 50.0625 17.8325C46.2975 18.83 43.095 19.975 40.02 21.3475L40.4375 21.18C37.825 19.9875 34.6675 18.845 31.41 17.9425L30.94 17.8325C33.5125 10.96 37.1075 6.875 40.5 6.875ZM11.8125 23.4375C13.6 21.3175 16.2575 19.98 19.2275 19.98C19.7125 19.98 20.19 20.015 20.655 20.085L20.6025 20.0775C21.8575 20.0825 23.0875 20.1625 24.295 20.315L24.1475 20.3C24.7675 20.375 25.4425 20.555 26.08 20.6625C25.2725 23.4825 24.6025 26.87 24.2025 30.34L24.175 30.645C21.355 32.7275 18.865 34.8675 16.5425 37.18L16.545 37.1775C16.1325 36.68 15.64 36.185 15.2675 35.6875C11.49 30.64 10.23 26.175 11.8125 23.4375ZM24.1475 59.6975C17.895 60.44 13.3925 59.2975 11.8125 56.5625C10.23 53.8225 11.4875 49.36 15.265 44.3125C15.6375 43.815 16.13 43.32 16.5425 42.8225C18.8625 45.13 21.3525 47.2725 23.99 49.225L24.1725 49.3525C24.6 53.1275 25.27 56.515 26.19 59.7975L26.08 59.335C25.4425 59.4425 24.7675 59.6225 24.15 59.6975H24.1475ZM40.5 73.125C37.1075 73.125 33.51 69.04 30.9375 62.1675C34.6625 61.1525 37.8175 60.0125 40.855 58.65L40.43 58.82C43.09 60.0275 46.2925 61.17 49.6 62.065L50.06 62.17C47.4875 69.0425 43.89 73.125 40.5 73.125ZM69.1925 56.5625C67.495 59.505 62.155 60.5775 54.915 59.365C55.72 56.5575 56.39 53.1825 56.7925 49.7275L56.8225 49.42C59.635 47.33 62.1225 45.1725 64.435 42.8425L64.44 42.8375C69.075 48.48 70.885 53.63 69.195 56.56L69.1925 56.5625ZM40.5 33.125C36.7025 33.125 33.625 36.2025 33.625 40C33.625 43.7975 36.7025 46.875 40.5 46.875C44.2975 46.875 47.375 43.7975 47.375 40C47.37 36.205 44.295 33.13 40.5 33.125ZM40.5 43.125C38.775 43.125 37.375 41.725 37.375 40C37.375 38.275 38.775 36.875 40.5 36.875C42.225 36.875 43.625 38.275 43.625 40C43.6225 41.725 42.225 43.1225 40.5 43.125Z" fill="#2E67B1"/>
</svg>
