<svg width="81" height="80" viewBox="0 0 81 80" fill="none" xmlns="http://www.w3.org/2000/svg">
<mask id="mask0_27_877" style="mask-type:alpha" maskUnits="userSpaceOnUse" x="0" y="0" width="81" height="80">
<rect x="0.5" width="80" height="80" fill="#D9D9D9"/>
</mask>
<g mask="url(#mask0_27_877)">
<path d="M18.2617 70C15.4283 70 13.4145 68.7361 12.22 66.2083C11.0256 63.6806 11.3172 61.3333 13.095 59.1667L31.595 36.6667V16.6667H28.2617C27.3172 16.6667 26.5256 16.3472 25.8867 15.7083C25.2478 15.0694 24.9284 14.2778 24.9284 13.3333C24.9284 12.3889 25.2478 11.5972 25.8867 10.9583C26.5256 10.3194 27.3172 10 28.2617 10H54.9284C55.8728 10 56.6645 10.3194 57.3034 10.9583C57.9422 11.5972 58.2617 12.3889 58.2617 13.3333C58.2617 14.2778 57.9422 15.0694 57.3034 15.7083C56.6645 16.3472 55.8728 16.6667 54.9284 16.6667H51.595V36.6667L70.095 59.1667C71.8728 61.3333 72.1645 63.6806 70.97 66.2083C69.7756 68.7361 67.7617 70 64.9284 70H18.2617ZM24.9284 60L64.9284 63.3333L46.9284 46.6667H36.2617L24.9284 60ZM18.2617 63.3333H64.9284L44.9284 39V16.6667H38.2617V39L18.2617 63.3333Z" fill="#2E67B1"/>
</g>
</svg>
