<svg width="39" height="40" viewBox="0 0 39 40" fill="none" xmlns="http://www.w3.org/2000/svg">
<path d="M21.2327 36.6856C20.3648 36.6856 19.5185 36.3534 18.9 35.7349C17.9952 34.8301 17.7051 33.4468 18.1607 32.2098L18.2345 32.0126L18.433 31.9388C19.6712 31.4857 21.052 31.7721 21.9568 32.6769C22.8604 33.5817 23.1505 34.9637 22.6949 36.2007L22.6211 36.3992L22.4226 36.4731C22.0332 36.6169 21.631 36.6856 21.2327 36.6856ZM18.9535 32.7342C18.7206 33.5804 18.9433 34.484 19.5465 35.0872C20.1497 35.6917 21.052 35.9118 21.8996 35.6802C22.1324 34.8339 21.9097 33.9304 21.3065 33.3272C20.7046 32.7227 19.7998 32.5038 18.9535 32.7342ZM15.5137 30.6624L15.3049 30.6267C14.0056 30.4066 12.9506 29.4674 12.6172 28.233C12.2838 26.9986 12.7203 25.656 13.7307 24.8097L13.8924 24.6748L14.1011 24.7104C15.4004 24.9306 16.4554 25.8698 16.7901 27.1055C17.1235 28.3399 16.687 29.6825 15.6765 30.5275L15.5137 30.6624ZM14.1596 25.6572C13.5373 26.2744 13.2802 27.1691 13.5029 27.9937C13.7257 28.8158 14.3989 29.4585 15.249 29.6774C15.8725 29.0614 16.1296 28.1655 15.9069 27.3422C15.6829 26.5201 15.0097 25.8761 14.1596 25.6572ZM21.6399 27.5114C21.2429 27.5114 20.8395 27.4414 20.4501 27.2989L20.2515 27.2251L20.1777 27.0278C19.7221 25.7909 20.0123 24.4075 20.9158 23.5027C21.8219 22.6005 23.204 22.309 24.4397 22.7646L24.6382 22.8384L24.712 23.0357C25.1676 24.2726 24.8787 25.656 23.9726 26.5608C23.3529 27.1818 22.5079 27.5114 21.6399 27.5114ZM20.9718 26.5048C21.8168 26.7377 22.7217 26.5162 23.3249 25.9118C23.9294 25.3085 24.1508 24.4037 23.9179 23.5587C23.0729 23.3233 22.1693 23.5473 21.5636 24.1518C20.9617 24.755 20.7402 25.6585 20.9718 26.5048ZM15.4768 15.7895C14.6076 15.7895 13.7626 15.4574 13.1428 14.8376C12.2393 13.9341 11.9491 12.5507 12.4047 11.3151L12.4785 11.1165L12.677 11.0427C13.9115 10.5884 15.296 10.8773 16.2009 11.7808C17.1044 12.6844 17.3946 14.0677 16.939 15.3046L16.8652 15.5032L16.6666 15.577C16.2785 15.7195 15.8751 15.7895 15.4768 15.7895ZM13.1988 11.8368C12.9659 12.6831 13.1886 13.5866 13.7918 14.1899C14.395 14.7943 15.2973 15.017 16.1449 14.7829C16.3778 13.9366 16.155 13.0331 15.5531 12.4286C14.9486 11.8279 14.0451 11.6039 13.1988 11.8368ZM19.4549 39.5477C13.7422 39.5477 9.06667 35.021 8.82488 29.3669H0.367188V28.4506H9.27411C9.52735 28.4506 9.73224 28.6555 9.73224 28.9087C9.73224 34.2702 14.0934 38.6314 19.4549 38.6314C24.8164 38.6314 29.1775 34.2702 29.1775 28.9087C29.1775 28.6555 29.3824 28.4506 29.6357 28.4506H38.5451V29.3681H30.0849C29.8431 35.0223 25.1676 39.5477 19.4549 39.5477ZM29.1674 21.7313H10.1726C6.42985 21.7313 2.4517 18.9379 2.4517 13.7623C2.4517 9.35143 4.43314 6.40918 9.29065 3.60947L13.8453 1.021C14.5643 0.616314 15.1179 0.452148 15.7605 0.452148C17.1935 0.452148 17.9672 1.59112 17.9672 2.66138C17.9672 3.6451 17.4213 4.22922 16.603 4.80444L14.6292 6.12285H30.6169C31.8818 6.12285 32.9114 7.15238 32.9114 8.41607C32.9114 8.93529 32.737 9.41506 32.4443 9.80066H32.891C32.8961 9.80066 32.9012 9.80066 32.905 9.80066C33.5082 9.80066 34.0783 10.0361 34.511 10.4662C34.9475 10.9002 35.188 11.4754 35.188 12.0875C35.188 13.3525 34.1572 14.382 32.891 14.382H32.4494C32.7396 14.7663 32.9101 15.2436 32.9101 15.7602C32.9101 16.9018 32.0714 17.8524 30.977 18.0255C31.2799 18.4149 31.4606 18.9023 31.4606 19.4317C31.4619 20.7005 30.4323 21.7313 29.1674 21.7313ZM15.7593 1.36969C15.2808 1.36969 14.8697 1.49568 14.2945 1.82019L9.74369 4.40611C5.21579 7.01621 3.3667 9.72812 3.3667 13.7635C3.3667 18.3436 6.87271 20.8163 10.1726 20.8163H29.1674C29.9271 20.8163 30.5443 20.1965 30.5443 19.4355C30.5443 18.6758 29.9271 18.0573 29.1674 18.0573H19.4562V17.141H30.6169C31.3766 17.141 31.9938 16.5225 31.9938 15.7628C31.9938 15.003 31.3766 14.3846 30.6169 14.3846H19.4562V13.4683H32.8897C33.6507 13.4683 34.2692 12.8498 34.2692 12.0901C34.2692 11.7236 34.1254 11.3787 33.8633 11.1178C33.6049 10.8595 33.2626 10.7182 32.9012 10.7182C32.8986 10.7182 32.8961 10.7182 32.8923 10.7182H19.4562V9.80193H30.6169C31.3753 9.79684 31.9938 9.17581 31.9938 8.41734C31.9938 7.6576 31.3766 7.03912 30.6169 7.03912H13.1174C12.915 7.03912 12.7381 6.90677 12.6783 6.71461C12.6198 6.52117 12.6949 6.31247 12.8628 6.20048L16.0838 4.04978C16.8957 3.47966 17.051 3.12206 17.051 2.66265C17.0497 2.04035 16.6463 1.36969 15.7593 1.36969Z" fill="black"/>
</svg>
