<svg width="42" height="42" viewBox="0 0 42 42" fill="none" xmlns="http://www.w3.org/2000/svg">
<path d="M2.75488 6.29883V39.2913H5.4091V6.29883H2.75488ZM11.5011 9.30104C10.5375 9.28512 9.62175 9.61162 8.88912 10.1929C9.16784 10.2248 9.44656 10.2805 9.71732 10.3522C10.4659 10.5593 11.3259 10.7822 11.9789 10.9654C12.6001 11.1247 13.1336 11.5308 13.4522 12.0882C13.4761 12.136 13.4999 12.1838 13.5238 12.2236C13.8026 12.7412 13.8902 13.3624 13.7229 13.9676C13.3964 15.2099 12.1462 15.9585 10.9039 15.6877C9.7651 15.3453 8.62712 15.186 7.62054 14.748C8.05933 15.9425 9.04839 16.9061 10.3703 17.2645C12.5284 17.8378 14.7502 16.5557 15.3315 14.3976C15.9049 12.2396 14.6228 10.0178 12.4647 9.44439C12.1382 9.35679 11.8197 9.30901 11.5011 9.30104ZM15.3714 9.46828C15.7536 9.85848 16.0801 10.3124 16.3349 10.7982H39.8669V9.46828H15.3714ZM8.11189 11.4671C7.40951 11.4591 6.70554 11.5945 6.04936 11.8812C6.73267 12.7972 7.70246 13.4587 8.80471 13.7606C9.55008 13.9597 10.4101 14.1906 11.0631 14.3658C11.3419 14.4375 11.6445 14.3976 11.8993 14.2463C12.1462 14.111 12.3293 13.8721 12.409 13.5854C12.4806 13.2987 12.4408 13.004 12.2975 12.7572C12.1541 12.5023 11.9152 12.3112 11.6285 12.2396C10.9755 12.0644 10.1235 11.8334 9.36692 11.6343C8.95283 11.5228 8.53395 11.4671 8.11189 11.4671ZM30.1754 15.1781V22.5124L37.3743 24.1051V15.1781H30.1754ZM18.1187 15.186L19.3133 34.0514L22.4986 33.2551C22.4986 33.2551 23.064 25.873 23.3428 22.1859C23.3507 22.0983 23.4144 22.0346 23.502 22.0346C23.5817 22.0346 23.6533 22.0983 23.6533 22.1859C23.94 25.873 24.4975 33.2551 24.4975 33.2551L27.6828 34.0514L28.8773 15.186H18.1187ZM16.3349 15.9107C16.0801 16.4044 15.7536 16.8504 15.3714 17.2326H16.972V15.9107H16.3349ZM38.5211 15.9107V17.2406H39.8669V15.9107H38.5211Z" fill="white"/>
<path d="M4.90918 6.79883V38.791H3.25488V6.79883H4.90918ZM28.3447 15.6855L27.2207 33.4199L24.9688 32.8564C24.9531 32.6493 24.9311 32.3594 24.9043 32.0059C24.8476 31.2562 24.7692 30.2184 24.6816 29.0654C24.5065 26.7592 24.2947 23.9915 24.1514 22.1475H24.1494C24.1291 21.7872 23.8289 21.5342 23.502 21.5342C23.1316 21.5342 22.8738 21.8203 22.8447 22.1406L22.8438 22.1484C22.7044 23.9918 22.4936 26.7591 22.3174 29.0654C22.2293 30.2184 22.1501 31.2563 22.0928 32.0059C22.0657 32.3597 22.0432 32.6493 22.0273 32.8564L19.7744 33.4199L18.6514 15.6855H28.3447ZM36.874 15.6777V23.4824L30.6758 22.1104V15.6777H36.874ZM11.4893 9.80078C11.7651 9.80773 12.044 9.84967 12.335 9.92773H12.3359C14.2253 10.4297 15.3504 12.3756 14.8486 14.2676C14.339 16.1594 12.391 17.2837 10.499 16.7812H10.498C9.76911 16.583 9.15612 16.1754 8.70605 15.6396C8.83497 15.6742 8.96364 15.7074 9.0918 15.7393C9.66146 15.8809 10.2058 16.0004 10.7598 16.167L10.7783 16.1719L10.7979 16.1758C12.2962 16.5022 13.8064 15.6016 14.2041 14.0996L14.2051 14.1006C14.4081 13.3655 14.3007 12.6119 13.9639 11.9863L13.959 11.9766L13.9521 11.9668L13.8994 11.8643L13.8936 11.8525L13.8867 11.8398L13.7295 11.5957C13.3393 11.0498 12.7669 10.6546 12.1133 10.4844H12.1143C11.5972 10.3394 10.9162 10.1582 10.292 9.98926C10.6721 9.8605 11.0758 9.79436 11.4893 9.80078ZM39.3672 16.4111V16.7402H39.0215V16.4111H39.3672ZM16.4717 16.7324H16.4277C16.4429 16.71 16.4568 16.6867 16.4717 16.6641V16.7324ZM8.10645 11.9668H8.1123C8.48971 11.9668 8.86513 12.017 9.2373 12.1172L9.23926 12.1182C9.99425 12.3168 10.8442 12.547 11.499 12.7227L11.5068 12.7246C11.6522 12.761 11.7813 12.86 11.8613 13.002L11.8652 13.0078C11.9395 13.1358 11.9631 13.2931 11.9248 13.4551C11.8781 13.6196 11.778 13.7423 11.6592 13.8076L11.6514 13.8125L11.6436 13.8164C11.5056 13.8982 11.341 13.9203 11.1895 13.8818C10.537 13.7068 9.67807 13.4762 8.93359 13.2773C8.16717 13.0669 7.47274 12.6628 6.91211 12.1104C7.30228 12.0095 7.70434 11.9622 8.10645 11.9668ZM39.3672 9.96875V10.2979H16.627C16.5614 10.1864 16.4934 10.0762 16.4209 9.96875H39.3672Z" stroke="black" stroke-opacity="0.7"/>
</svg>
