<svg width="42" height="41" viewBox="0 0 42 41" fill="none" xmlns="http://www.w3.org/2000/svg">
<path d="M1.78662 36.1664H5.01447C5.4103 36.1664 5.80104 36.2581 6.15441 36.4348L9.09854 37.9077C10.1599 38.4383 11.3301 38.7146 12.5167 38.7147H32.3662C33.0421 38.7147 33.6902 38.4462 34.1681 37.9683C34.646 37.4904 34.9145 36.8422 34.9145 36.1664C34.9145 35.4905 34.646 34.8423 34.1681 34.3644C33.6902 33.8865 33.0421 33.6181 32.3662 33.6181M32.3662 33.6181H36.1887C36.8645 33.6181 37.5127 33.3496 37.9906 32.8717C38.4685 32.3938 38.737 31.7456 38.737 31.0698C38.737 30.3939 38.4685 29.7457 37.9906 29.2678C37.5127 28.7899 36.8645 28.5215 36.1887 28.5215M32.3662 33.6181H27.2696M36.1887 28.5215H37.4628C38.1387 28.5215 38.7868 28.253 39.2647 27.7751C39.7426 27.2972 40.0111 26.649 40.0111 25.9731C40.0111 25.2973 39.7426 24.6491 39.2647 24.1712C38.7868 23.6933 38.1387 23.4249 37.4628 23.4249H34.9145M36.1887 28.5215H28.5438M34.9145 23.4249C35.5904 23.4249 36.2385 23.1564 36.7164 22.6785C37.1943 22.2006 37.4628 21.5524 37.4628 20.8766C37.4628 20.2007 37.1943 19.5525 36.7164 19.0746C36.2385 18.5967 35.5904 18.3283 34.9145 18.3283H25.9955M34.9145 23.4249H28.5438M25.9955 18.3283C26.6713 18.3283 27.3195 18.0598 27.7974 17.5819C28.2753 17.104 28.5438 16.4558 28.5438 15.78C28.5438 15.1041 28.2753 14.4559 27.7974 13.978C27.3195 13.5001 26.6713 13.2317 25.9955 13.2317H16.0707C14.8128 13.231 13.5741 13.5408 12.4646 14.1334C11.3551 14.7261 10.409 15.5835 9.71013 16.6294L7.64771 19.7417C7.41502 20.0908 7.09976 20.377 6.7299 20.575C6.36004 20.7729 5.94703 20.8765 5.52752 20.8766H1.78662M25.9955 18.3283H22.173M39.5864 14.0743C39.5867 13.6078 39.4904 13.1464 39.3036 12.7189C39.1169 12.2915 38.8437 11.9073 38.5013 11.5906C38.1589 11.2738 37.7546 11.0314 37.3139 10.8784C36.8732 10.7255 36.4057 10.6655 35.9406 10.702C36.0986 10.1414 36.1819 9.5604 36.1887 8.97769C36.1934 7.54872 35.7464 6.1548 34.9116 4.99505C34.0767 3.83531 32.8967 2.96906 31.5401 2.52006C30.1835 2.07106 28.7197 2.06228 27.3578 2.49496C25.9959 2.92764 24.8055 3.77965 23.9568 4.92929C23.0194 4.21423 21.8622 3.84802 20.6841 3.89359C19.506 3.93917 18.3805 4.39368 17.5011 5.17903" stroke="black" stroke-opacity="0.7" stroke-width="1.5" stroke-linecap="round" stroke-linejoin="round"/>
</svg>
