<svg width="42" height="42" viewBox="0 0 42 42" fill="none" xmlns="http://www.w3.org/2000/svg">
<path d="M38.3269 27.3163C38.2688 27.2289 38.1899 27.1572 38.0974 27.1077C38.0049 27.0581 37.9015 27.0321 37.7966 27.0321C37.6916 27.0321 37.5882 27.0581 37.4957 27.1077C37.4032 27.1572 37.3243 27.2289 37.2662 27.3163C37.1595 27.4787 34.6112 31.333 34.6112 34.0406C34.6112 34.8854 34.9468 35.6956 35.5442 36.293C36.1415 36.8904 36.9517 37.226 37.7966 37.226C38.6414 37.226 39.4516 36.8904 40.049 36.293C40.6463 35.6956 40.9819 34.8854 40.9819 34.0406C40.9819 31.333 38.4336 27.4787 38.3269 27.3163ZM37.7966 35.9518C37.2897 35.9518 36.8035 35.7505 36.4451 35.392C36.0867 35.0336 35.8853 34.5475 35.8853 34.0406C35.8853 32.4081 37.0783 30.1162 37.7966 28.8851C38.5149 30.1162 39.7078 32.4049 39.7078 34.0406C39.7078 34.5475 39.5064 35.0336 39.148 35.392C38.7896 35.7505 38.3034 35.9518 37.7966 35.9518ZM38.4161 21.9999C38.4409 21.8944 38.4385 21.7844 38.4089 21.6802C38.3794 21.5759 38.3238 21.481 38.2473 21.4042L19.8533 3.01027C19.7339 2.89113 19.5721 2.82422 19.4034 2.82422C19.2347 2.82422 19.0729 2.89113 18.9535 3.01027L12.0348 9.92731L7.6661 5.55857C7.54555 5.44424 7.38511 5.38153 7.21899 5.3838C7.05287 5.38607 6.8942 5.45315 6.77683 5.57073C6.65945 5.68832 6.59265 5.8471 6.59067 6.01323C6.5887 6.17935 6.65169 6.33968 6.76623 6.46003L11.135 10.8288L3.69076 18.273C3.39483 18.5688 3.16008 18.92 2.99992 19.3066C2.83976 19.6931 2.75732 20.1074 2.75732 20.5258C2.75732 20.9443 2.83976 21.3586 2.99992 21.7451C3.16008 22.1317 3.39483 22.4829 3.69076 22.7787L17.2047 36.2927C17.5005 36.5886 17.8517 36.8233 18.2383 36.9835C18.6248 37.1436 19.0391 37.2261 19.4576 37.2261C19.876 37.2261 20.2903 37.1436 20.6768 36.9835C21.0634 36.8233 21.4146 36.5886 21.7104 36.2927L34.3181 23.6881L37.9972 22.4618C38.1008 22.4271 38.1937 22.3664 38.267 22.2856C38.3404 22.2047 38.3917 22.1063 38.4161 21.9999ZM33.7734 22.5239C33.6789 22.5569 33.5933 22.6114 33.5234 22.6831L20.809 35.396C20.6314 35.5741 20.4204 35.7155 20.1881 35.812C19.9558 35.9084 19.7067 35.9581 19.4552 35.9581C19.2036 35.9581 18.9546 35.9084 18.7222 35.812C18.4899 35.7155 18.2789 35.5741 18.1014 35.396L4.59062 21.8772C4.41245 21.6997 4.27107 21.4887 4.17461 21.2564C4.07815 21.0241 4.02849 20.775 4.02849 20.5235C4.02849 20.2719 4.07815 20.0228 4.17461 19.7905C4.27107 19.5582 4.41245 19.3472 4.59062 19.1697L12.0348 11.7302L17.4818 17.1772C16.9217 17.9584 16.6765 18.922 16.7951 19.8759C16.9136 20.8298 17.3872 21.704 18.1214 22.3244C18.8557 22.9447 19.7967 23.2657 20.757 23.2232C21.7173 23.1808 22.6264 22.7781 23.3031 22.0954C23.9734 21.4164 24.3655 20.5111 24.4023 19.5576C24.4391 18.6041 24.118 17.6714 23.502 16.9426C22.8861 16.2139 22.0198 15.7419 21.0735 15.6194C20.1272 15.4968 19.1693 15.7327 18.3881 16.2805L12.9411 10.8335L19.409 4.36724L36.6164 21.5762L33.7734 22.5239ZM18.7942 17.5865C19.1507 17.2304 19.6048 16.988 20.099 16.8899C20.5933 16.7918 21.1055 16.8425 21.571 17.0354C22.0364 17.2284 22.4343 17.555 22.7142 17.974C22.994 18.393 23.1434 18.8856 23.1434 19.3895C23.1434 19.8933 22.994 20.3859 22.7142 20.8049C22.4343 21.2239 22.0364 21.5506 21.571 21.7435C21.1055 21.9365 20.5933 21.9871 20.099 21.889C19.6048 21.7909 19.1507 21.5485 18.7942 21.1924C18.5573 20.9557 18.3693 20.6747 18.2411 20.3653C18.1128 20.056 18.0468 19.7243 18.0468 19.3895C18.0468 19.0546 18.1128 18.723 18.2411 18.4136C18.3693 18.1043 18.5573 17.8232 18.7942 17.5865Z" fill="black" fill-opacity="0.7"/>
</svg>
