<svg width="25" height="24" viewBox="0 0 25 24" fill="none" xmlns="http://www.w3.org/2000/svg">
<mask id="mask0_27_920" style="mask-type:alpha" maskUnits="userSpaceOnUse" x="0" y="0" width="25" height="24">
<rect x="0.5" width="24" height="24" fill="#D9D9D9"/>
</mask>
<g mask="url(#mask0_27_920)">
<path d="M23.3188 22.125C20.975 22.125 18.6594 21.6141 16.3719 20.5922C14.0844 19.5703 12.0031 18.1219 10.1281 16.2469C8.25312 14.3719 6.80469 12.2906 5.78281 10.0031C4.76094 7.71562 4.25 5.4 4.25 3.05625C4.25 2.71875 4.3625 2.4375 4.5875 2.2125C4.8125 1.9875 5.09375 1.875 5.43125 1.875H9.9875C10.25 1.875 10.4844 1.96406 10.6906 2.14219C10.8969 2.32031 11.0188 2.53125 11.0563 2.775L11.7875 6.7125C11.825 7.0125 11.8156 7.26562 11.7594 7.47187C11.7031 7.67812 11.6 7.85625 11.45 8.00625L8.72188 10.7625C9.09688 11.4563 9.54219 12.1266 10.0578 12.7734C10.5734 13.4203 11.1406 14.0438 11.7594 14.6438C12.3406 15.225 12.95 15.7641 13.5875 16.2609C14.225 16.7578 14.9 17.2125 15.6125 17.625L18.2562 14.9813C18.425 14.8125 18.6453 14.6859 18.9172 14.6016C19.1891 14.5172 19.4563 14.4937 19.7188 14.5312L23.6 15.3187C23.8625 15.3938 24.0781 15.5297 24.2469 15.7266C24.4156 15.9234 24.5 16.1438 24.5 16.3875V20.9438C24.5 21.2812 24.3875 21.5625 24.1625 21.7875C23.9375 22.0125 23.6562 22.125 23.3188 22.125ZM7.65313 8.625L9.50938 6.76875L9.03125 4.125H6.52813C6.62188 4.89375 6.75312 5.65313 6.92188 6.40313C7.09063 7.15313 7.33438 7.89375 7.65313 8.625ZM17.7219 18.6938C18.4531 19.0125 19.1984 19.2656 19.9578 19.4531C20.7172 19.6406 21.4813 19.7625 22.25 19.8188V17.3438L19.6063 16.8094L17.7219 18.6938Z" fill="white"/>
</g>
</svg>
