<svg width="42" height="42" viewBox="0 0 42 42" fill="none" xmlns="http://www.w3.org/2000/svg">
<g clip-path="url(#clip0_429_108)">
<path d="M26.7113 28.0947H5.28939C3.48228 28.0947 2.01221 29.5648 2.01221 31.3718C2.01221 33.1789 3.48237 34.649 5.28939 34.649H26.7113C28.5184 34.649 29.9885 33.1789 29.9885 31.3718C29.9885 29.5649 28.5183 28.0948 26.7113 28.0947ZM26.7113 33.942H5.28939C3.87222 33.942 2.71921 32.789 2.71921 31.3718C2.71921 29.9547 3.87222 28.8017 5.28939 28.8017H26.7113C28.1285 28.8018 29.2815 29.9547 29.2815 31.3718C29.2815 32.7891 28.1285 33.942 26.7113 33.942Z" fill="black"/>
<path d="M26.6999 26.5732H5.32184C2.67015 26.5732 0.512695 28.7262 0.512695 31.3726C0.512695 31.4022 0.516355 31.431 0.523176 31.4584C0.569339 34.0653 2.70425 36.172 5.32184 36.172H26.6999C29.3463 36.172 31.4993 34.0189 31.4993 31.3726C31.4993 28.7263 29.3463 26.5733 26.6999 26.5732ZM26.6999 35.465H5.32184C3.06524 35.465 1.22943 33.6291 1.22943 31.3726C1.22943 31.3452 1.22636 31.3186 1.22045 31.2931C1.26312 29.0731 3.08662 27.2802 5.32193 27.2802H26.7C28.9566 27.2803 30.7924 29.1161 30.7924 31.3726C30.7923 33.6291 28.9565 35.465 26.6999 35.465Z" fill="black"/>
<path d="M5.42223 29.3818C4.32495 29.3818 3.43213 30.2745 3.43213 31.3719C3.43213 32.4692 4.32487 33.362 5.42223 33.362C6.51951 33.362 7.41233 32.4692 7.41233 31.3719C7.41233 30.2746 6.51959 29.3818 5.42223 29.3818ZM5.42223 32.6549C4.71472 32.6549 4.13914 32.0794 4.13914 31.3719C4.13914 30.6644 4.71472 30.0888 5.42223 30.0888C6.12974 30.0888 6.70532 30.6643 6.70532 31.3719C6.70532 32.0794 6.12974 32.6549 5.42223 32.6549Z" fill="black"/>
<path d="M12.4654 29.3818C11.368 29.3818 10.4751 30.2745 10.4751 31.3719C10.4751 32.4692 11.3679 33.362 12.4654 33.362C13.5626 33.362 14.4555 32.4692 14.4555 31.3719C14.4555 30.2746 13.5627 29.3818 12.4654 29.3818ZM12.4654 32.6549C11.7578 32.6549 11.1821 32.0794 11.1821 31.3719C11.1821 30.6644 11.7578 30.0888 12.4654 30.0888C13.1729 30.0888 13.7485 30.6643 13.7485 31.3719C13.7485 32.0794 13.1729 32.6549 12.4654 32.6549Z" fill="black"/>
<path d="M19.5077 29.3818C18.4104 29.3818 17.5176 30.2746 17.5176 31.3719C17.5176 32.4693 18.4103 33.362 19.5077 33.362C20.605 33.362 21.4978 32.4693 21.4978 31.3719C21.4978 30.2746 20.605 29.3818 19.5077 29.3818ZM19.5077 32.655C18.8002 32.655 18.2246 32.0794 18.2246 31.3719C18.2246 30.6644 18.8002 30.0888 19.5077 30.0888C20.2152 30.0888 20.7908 30.6644 20.7908 31.3719C20.7908 32.0794 20.2152 32.655 19.5077 32.655Z" fill="black"/>
<path d="M26.5506 29.3818C25.4534 29.3818 24.5605 30.2746 24.5605 31.3719C24.5605 32.4693 25.4533 33.362 26.5506 33.362C27.6478 33.362 28.5406 32.4693 28.5406 31.3719C28.5406 30.2746 27.6478 29.3818 26.5506 29.3818ZM26.5506 32.655C25.8431 32.655 25.2676 32.0794 25.2676 31.3719C25.2676 30.6644 25.8431 30.0888 26.5506 30.0888C27.2581 30.0888 27.8336 30.6644 27.8336 31.3719C27.8336 32.0794 27.2581 32.655 26.5506 32.655Z" fill="black"/>
<path d="M40.2846 23.7068C40.3107 23.5443 40.3249 23.3778 40.3249 23.208C40.3249 22.1045 39.7497 21.1336 38.8839 20.577L36.2464 7.80548C36.2456 7.80157 36.2438 7.79816 36.2429 7.79433C36.2305 7.73769 36.2163 7.68113 36.1991 7.62473C35.8817 6.58419 34.8384 5.95869 33.7703 6.17121L22.3805 8.52796C21.9713 7.89514 21.1949 7.43767 20.4587 7.43767H9.84752C8.93432 7.43767 8.19129 8.18069 8.19129 9.0939V11.5628H3.18152C2.61966 11.5628 2.1626 12.0198 2.1626 12.5817V23.7491C2.1626 23.7571 2.16285 23.7652 2.16343 23.7733C2.2343 24.8062 3.10109 25.6154 4.13681 25.6154H26.1735C27.2622 25.6154 28.1479 24.7297 28.1479 23.6409C28.1479 23.3906 28.1006 23.1512 28.0152 22.9306C28.0145 22.9287 28.014 22.9267 28.0134 22.9247L24.7057 14.4014L30.5008 12.0275L34.4603 21.7025C34.2137 22.1494 34.0728 22.6625 34.0728 23.2082C34.0728 24.42 34.7665 25.4723 35.7771 25.9908L34.0817 31.3567C34.0713 31.3894 34.0364 31.408 34.0034 31.3975L33.2574 31.1618C33.1501 31.128 33.0329 31.1471 32.942 31.2137C32.851 31.2804 32.7974 31.3863 32.7974 31.4989V32.7346C32.7974 32.8872 32.8953 33.0225 33.0403 33.0703C33.673 33.2789 34.3344 33.3847 35.0062 33.3847C38.4686 33.3847 41.2854 30.5678 41.2854 27.1055C41.2853 25.8924 40.9391 24.721 40.2846 23.7068ZM8.8983 9.0939C8.8983 8.57054 9.32408 8.14468 9.84752 8.14468H20.4586C21.0336 8.14468 21.6951 8.59749 21.9031 9.13357L26.8073 21.7714C26.6081 21.7037 26.3951 21.6663 26.1733 21.6663H24.9762L20.7739 10.837C20.5407 10.2366 19.8536 9.7663 19.2096 9.7663H11.8257C11.1309 9.7663 10.5657 10.3315 10.5657 11.0264V11.5628H8.89822L8.8983 9.0939ZM11.2728 11.5866V11.0264C11.2728 10.7214 11.5208 10.4733 11.8257 10.4733H19.2096C19.5636 10.4733 19.9866 10.7628 20.1148 11.0929L23.4417 19.6661H14.1033C13.908 19.6661 13.7498 19.8244 13.7498 20.0196C13.7498 20.2148 13.908 20.3731 14.1033 20.3731H23.7161L24.218 21.6664H12.0745V12.5817C12.0745 12.0944 11.7306 11.6865 11.2728 11.5866ZM26.1734 24.9083H4.13673C3.47505 24.9083 2.92059 24.3944 2.86961 23.7362V23.1524C2.90604 23.1651 2.94446 23.1734 2.9853 23.1734H8.80772C9.00302 23.1734 9.16122 23.0151 9.16122 22.8199C9.16122 22.6247 9.00302 22.4664 8.80772 22.4664H2.9853C2.94455 22.4664 2.90604 22.4747 2.86961 22.4874V16.4637H5.36983C5.56513 16.4637 5.72334 16.3055 5.72334 16.1102C5.72334 15.915 5.56513 15.7567 5.36983 15.7567H2.86961V14.2457H8.58597C8.78127 14.2457 8.93947 14.0874 8.93947 13.8922C8.93947 13.697 8.78127 13.5387 8.58597 13.5387H2.86961V12.5817C2.86961 12.4097 3.00959 12.2698 3.18152 12.2698H11.0556C11.2275 12.2698 11.3675 12.4097 11.3675 12.5817V22.0199C11.3675 22.2151 11.5257 22.3734 11.721 22.3734H24.7334C24.7337 22.3734 24.734 22.3735 24.7344 22.3735C24.7347 22.3735 24.735 22.3734 24.7353 22.3734H26.1734C26.8723 22.3735 27.4409 22.942 27.4409 23.6409C27.4409 24.3397 26.8723 24.9083 26.1734 24.9083ZM22.6824 9.18747L33.9107 6.86408C34.6188 6.72376 35.3118 7.13923 35.5228 7.83101C35.7353 8.52754 35.3883 9.26075 34.7158 9.53665L24.4499 13.7421L22.6824 9.18747ZM31.155 11.7594L34.984 10.1908C35.3512 10.0402 35.6535 9.79874 35.875 9.50255L38.0864 20.211C37.8048 20.1275 37.5071 20.082 37.1989 20.082C36.3176 20.082 35.521 20.449 34.9521 21.0377L31.155 11.7594ZM34.7798 23.2081C34.7798 21.8742 35.865 20.789 37.1989 20.789C38.5327 20.789 39.6179 21.8742 39.6179 23.2081C39.6179 24.542 38.5327 25.6271 37.1989 25.6271C35.865 25.6271 34.7798 24.5419 34.7798 23.2081ZM35.0061 32.6774C34.4951 32.6774 33.9912 32.6085 33.5043 32.4726V31.9811L33.7904 32.0715C33.9864 32.1334 34.1947 32.1153 34.3771 32.0205C34.5594 31.9257 34.694 31.7655 34.756 31.5696L36.4397 26.2404C36.6829 26.3013 36.9371 26.3341 37.199 26.3341C38.4173 26.3341 39.4742 25.6331 39.9898 24.6137C40.376 25.3834 40.5784 26.2322 40.5784 27.1053C40.5783 30.1778 38.0787 32.6774 35.0061 32.6774Z" fill="black"/>
<path d="M38.6062 23.2079C38.6062 22.432 37.975 21.8008 37.1992 21.8008C36.4233 21.8008 35.792 22.432 35.792 23.2079C35.792 23.9838 36.4233 24.615 37.1992 24.615C37.9751 24.615 38.6062 23.9838 38.6062 23.2079ZM36.4991 23.2079C36.4991 22.8219 36.8132 22.5078 37.1993 22.5078C37.5853 22.5078 37.8993 22.8219 37.8993 23.2079C37.8993 23.5939 37.5853 23.908 37.1993 23.908C36.8132 23.908 36.4991 23.5939 36.4991 23.2079Z" fill="black"/>
</g>
<defs>
<clipPath id="clip0_429_108">
<rect width="40.7728" height="40.7728" fill="white" transform="translate(0.512695 0.763672)"/>
</clipPath>
</defs>
</svg>
