<svg width="42" height="42" viewBox="0 0 42 42" fill="none" xmlns="http://www.w3.org/2000/svg">
<path d="M37.4632 11.7435H31.3568L36.6397 6.46059C36.6989 6.4014 36.7459 6.33113 36.7779 6.25379C36.8099 6.17645 36.8264 6.09357 36.8264 6.00986C36.8264 5.92615 36.8099 5.84326 36.7779 5.76592C36.7459 5.68859 36.6989 5.61832 36.6397 5.55913C36.5805 5.49994 36.5103 5.45298 36.4329 5.42095C36.3556 5.38892 36.2727 5.37243 36.189 5.37243C36.1053 5.37243 36.0224 5.38892 35.9451 5.42095C35.8677 5.45298 35.7975 5.49994 35.7383 5.55913L30.4553 10.8421V4.73571C30.4553 4.56674 30.3882 4.4047 30.2687 4.28523C30.1493 4.16575 29.9872 4.09863 29.8183 4.09863C29.6493 4.09863 29.4873 4.16575 29.3678 4.28523C29.2483 4.4047 29.1812 4.56674 29.1812 4.73571V11.1065C27.342 9.72718 25.0673 9.05713 22.7741 9.2192C20.4809 9.38126 18.323 10.3646 16.6961 11.9888C13.9694 14.6629 11.1997 19.2706 8.46192 25.6859C6.56184 30.1454 5.33866 33.9679 5.18258 34.46C5.03937 34.751 4.97224 35.0736 4.98747 35.3976C5.0027 35.7215 5.09978 36.0364 5.26966 36.3127C5.43954 36.589 5.67666 36.8177 5.95889 36.9775C6.24112 37.1373 6.55925 37.223 6.88357 37.2265C7.18009 37.2257 7.47235 37.1559 7.73725 37.0227C8.23417 36.8634 12.0582 35.645 16.5114 33.7433C22.9283 31.0039 27.5391 28.231 30.2085 25.5075C31.8342 23.8806 32.8186 21.7218 32.981 19.4275C33.1433 17.1333 32.4728 14.8574 31.0924 13.0177H37.4632C37.6321 13.0177 37.7942 12.9506 37.9136 12.8311C38.0331 12.7116 38.1002 12.5496 38.1002 12.3806C38.1002 12.2116 38.0331 12.0496 37.9136 11.9301C37.7942 11.8107 37.6321 11.7435 37.4632 11.7435ZM29.299 24.6108C27.7446 26.2035 25.569 27.6991 23.1879 29.056L18.8016 24.6714C18.6805 24.5616 18.5217 24.5026 18.3582 24.5066C18.1947 24.5106 18.039 24.5774 17.9234 24.693C17.8078 24.8086 17.741 24.9643 17.737 25.1278C17.733 25.2913 17.792 25.4501 17.9018 25.5712L22.0268 29.6979C15.2627 33.3324 7.41552 35.7931 7.30404 35.8218C7.26505 35.8344 7.22721 35.8504 7.19096 35.8696C7.07048 35.9336 6.93261 35.9574 6.79765 35.9372C6.66269 35.917 6.53777 35.8541 6.44128 35.7576C6.34479 35.6611 6.28183 35.5362 6.26167 35.4012C6.24151 35.2663 6.26522 35.1284 6.32931 35.0079C6.34844 34.9717 6.36443 34.9338 6.37709 34.8948C6.42328 34.7356 11.1106 19.7643 17.1468 13.3506L22.9984 19.2005C23.1178 19.3196 23.2796 19.3865 23.4483 19.3865C23.617 19.3865 23.7788 19.3196 23.8982 19.2005C24.0174 19.0811 24.0843 18.9193 24.0843 18.7506C24.0843 18.5819 24.0174 18.4201 23.8982 18.3006L18.061 12.4634C19.6891 11.0829 21.7873 10.3842 23.918 10.5132C26.0487 10.6422 28.0473 11.5889 29.4969 13.1558C30.9465 14.7227 31.7351 16.7888 31.6982 18.923C31.6614 21.0573 30.8019 23.0949 29.299 24.6108Z" fill="black" fill-opacity="0.7"/>
</svg>
