<svg width="42" height="42" viewBox="0 0 42 42" fill="none" xmlns="http://www.w3.org/2000/svg">
<g clip-path="url(#clip0_967_135)">
<path d="M35.7308 23.4214V34.0264L20.4597 40.8136M20.4597 40.8136L5.18848 34.0264V23.6573M20.4597 40.8136V22.9972M20.4597 22.9972L35.7308 16.21L20.4597 9.42285L5.18848 16.21L20.4597 22.9972Z" stroke="black" stroke-opacity="0.7" stroke-miterlimit="10" stroke-linecap="round" stroke-linejoin="round"/>
<path d="M5.18852 16.2094L1.79492 10.2706L17.0661 3.4834L20.4597 9.42219M35.7309 16.2094L39.1245 10.2706L24.7017 3.4834L20.4597 9.42219M20.4597 22.9966L17.0661 28.9354L1.79492 22.1482L5.18852 16.2094M20.4597 22.9966L24.7017 28.9354L39.9729 21.2998L35.7309 16.2094" stroke="black" stroke-opacity="0.7" stroke-miterlimit="10" stroke-linecap="round" stroke-linejoin="round"/>
</g>
<defs>
<clipPath id="clip0_967_135">
<rect width="40.7232" height="40.7232" fill="white" transform="translate(0.946289 0.938477)"/>
</clipPath>
</defs>
</svg>
