<svg width="42" height="41" viewBox="0 0 42 41" fill="none" xmlns="http://www.w3.org/2000/svg">
<path fill-rule="evenodd" clip-rule="evenodd" d="M9.34374 8.9599C8.0492 11.8344 7.21676 15.8964 7.21676 20.4493C7.21676 25.0023 8.0492 29.0643 9.34374 31.9388C10.6909 34.9339 12.2896 36.1638 13.5875 36.1638C14.8854 36.1638 16.4841 34.9339 17.8313 31.9388C19.1258 29.0643 19.9583 25.0023 19.9583 20.4493C19.9583 15.8964 19.1258 11.8344 17.8313 8.9599C16.4841 5.9648 14.8854 4.73482 13.5875 4.73482C12.2896 4.73482 10.6909 5.9648 9.34374 8.9599ZM18.2407 4.73482C18.9882 5.64541 19.627 6.73948 20.1553 7.9134C21.6282 11.1871 22.5066 15.6212 22.5066 20.4493C22.5066 25.2775 21.6282 29.7115 20.1553 32.9853C19.627 34.1592 18.9865 35.2533 18.2407 36.1638H28.8773C30.1752 36.1638 31.7739 34.9339 33.1211 31.9388C34.4156 29.0643 35.248 25.0023 35.248 20.4493C35.248 15.8964 34.4156 11.8344 33.1211 8.9599C31.7739 5.9648 30.1752 4.73482 28.8773 4.73482H18.2407ZM13.5875 2.18652H28.8773C31.8027 2.18652 34.0249 4.76031 35.4451 7.9134C36.918 11.1871 37.7963 15.6212 37.7963 20.4493C37.7963 25.2775 36.918 29.7115 35.4451 32.9853C34.0266 36.1384 31.8027 38.7121 28.8773 38.7121H13.5875C10.6621 38.7121 8.43994 36.1384 7.01969 32.9853C5.54677 29.7115 4.66846 25.2775 4.66846 20.4493C4.66846 15.6212 5.54677 11.1871 7.01969 7.9134C8.43994 4.76031 10.6621 2.18652 13.5875 2.18652ZM13.0218 13.5519C12.592 15.2678 12.3134 17.7057 12.3134 20.4493C12.3134 23.193 12.592 25.6309 13.0218 27.3467C13.2036 28.0772 13.4006 28.626 13.5875 28.9997C13.7744 28.626 13.9714 28.0772 14.1532 27.3484C14.5151 25.9027 14.7699 23.9439 14.8413 21.7235H14.4369C14.099 21.7235 13.7749 21.5892 13.536 21.3503C13.297 21.1113 13.1628 20.7873 13.1628 20.4493C13.1628 20.1114 13.297 19.7873 13.536 19.5484C13.7749 19.3094 14.099 19.1752 14.4369 19.1752H14.8413C14.7699 16.9548 14.5151 14.996 14.1532 13.5519C14.022 12.983 13.8324 12.429 13.5875 11.8989C13.4006 12.2727 13.2036 12.8231 13.0218 13.5519ZM11.4979 10.409C11.8428 9.82632 12.507 8.98199 13.5875 8.98199C14.668 8.98199 15.3322 9.82632 15.6771 10.409C16.0712 11.0767 16.3821 11.955 16.6251 12.9319C17.1177 14.9042 17.41 17.5613 17.41 20.4493C17.41 23.3374 17.1177 25.9944 16.6251 27.9651C16.3821 28.942 16.0712 29.822 15.6771 30.4896C15.3322 31.0723 14.668 31.9167 13.5875 31.9167C12.507 31.9167 11.8428 31.0723 11.4979 30.4896C11.1038 29.822 10.7929 28.9437 10.5499 27.9651C10.0573 25.9944 9.76506 23.3374 9.76506 20.4493C9.76506 17.5613 10.0573 14.9042 10.5499 12.9319C10.7929 11.9567 11.1038 11.0767 11.4979 10.409Z" fill="black" fill-opacity="0.7"/>
</svg>
