<svg width="42" height="42" viewBox="0 0 42 42" fill="none" xmlns="http://www.w3.org/2000/svg">
<g clip-path="url(#clip0_429_118)">
<path d="M17.7991 40.2488H4.06509C3.00014 40.2488 2.13372 39.3824 2.13372 38.3175C2.13372 37.2525 3.00006 36.3861 4.06509 36.3861H8.38693C8.77897 36.3861 9.1472 36.2331 9.42385 35.9555C9.70599 35.6723 9.86064 35.2942 9.85921 34.8929V34.8839C9.85921 33.8191 10.7256 32.9526 11.7906 32.9526H14.3657C14.7213 32.9526 15.0095 32.6645 15.0095 32.3088C15.0095 31.9532 14.7212 31.665 14.3657 31.665H11.7906C10.0156 31.665 8.57168 33.109 8.57168 34.8839V34.8952C8.57192 34.9745 8.53433 35.0241 8.51187 35.0467C8.47755 35.0811 8.43559 35.0986 8.38701 35.0986H4.06509C2.29012 35.0986 0.846191 36.5425 0.846191 38.3175C0.846191 40.0924 2.29012 41.5364 4.06509 41.5364H17.7991C18.1546 41.5364 18.4428 41.2482 18.4428 40.8926C18.4428 40.5369 18.1546 40.2488 17.7991 40.2488Z" fill="black" fill-opacity="0.7"/>
<path d="M39.2582 10.206H36.3235C36.082 9.699 35.5644 9.34766 34.9663 9.34766H30.6744C30.0764 9.34766 29.5588 9.699 29.3173 10.206H26.3825C26.027 10.206 25.7388 10.4942 25.7388 10.8498C25.7388 11.2054 26.027 11.4936 26.3825 11.4936H29.1723V11.6691C29.1723 12.9124 30.0874 13.9392 31.3013 14.0574C31.4509 14.072 31.6001 14.0724 31.7474 14.0589V16.8172C31.7474 18.1176 32.7468 19.1719 34.0226 19.2173C34.6684 19.239 35.282 19.0058 35.7471 18.557C36.2123 18.1081 36.4685 17.5048 36.4685 16.8584V16.6438H38.556L37.4226 29.6783C37.3918 30.0324 37.6541 30.3447 38.0082 30.3754C38.0271 30.3771 38.046 30.3778 38.0647 30.3778C38.3951 30.3778 38.6762 30.125 38.7053 29.7897L39.8551 16.5672C40.8686 16.3024 41.6187 15.3788 41.6187 14.2833V12.5666C41.6187 11.265 40.5598 10.206 39.2582 10.206ZM35.1809 10.8499V16.8586C35.1809 17.1525 35.0644 17.4266 34.8528 17.6308C34.6415 17.8348 34.3632 17.9393 34.0681 17.9309C33.4984 17.9106 33.0349 17.411 33.0349 16.8174V13.1935C33.0349 12.9633 32.9121 12.7508 32.7127 12.6358C32.6131 12.5784 32.5021 12.5498 32.3911 12.5498C32.2797 12.5498 32.1683 12.5787 32.0685 12.6365C31.873 12.7497 31.6507 12.7981 31.4259 12.7762C30.8842 12.7234 30.4598 12.2372 30.4598 11.6693V10.85C30.4598 10.7316 30.5561 10.6353 30.6744 10.6353H34.9663C35.0846 10.6353 35.1809 10.7315 35.1809 10.85L35.1809 10.8499ZM40.3312 14.2833C40.3312 14.8733 39.8526 15.3536 39.2632 15.3563C39.259 15.3563 39.255 15.3563 39.2508 15.3563H36.4685V11.4936H39.2583C39.85 11.4936 40.3313 11.975 40.3313 12.5666V14.2833H40.3312Z" fill="black" fill-opacity="0.7"/>
<path d="M29.8165 16.643C30.1721 16.643 30.4603 16.3549 30.4603 15.9992C30.4603 15.6436 30.172 15.3555 29.8165 15.3555H26.383C26.0275 15.3555 25.7393 15.6436 25.7393 15.9992C25.7393 16.3549 26.0275 16.643 26.383 16.643H29.8165Z" fill="black" fill-opacity="0.7"/>
<path d="M40.5945 33.6752C39.29 31.4477 36.871 29.9484 34.1084 29.9484H28.9581C28.3664 29.9484 27.8851 29.4671 27.8851 28.8754V28.017C27.8851 27.7866 27.8514 27.5582 27.7859 27.3393C28.3665 26.9087 28.7435 26.2186 28.7435 25.4419C28.7435 24.1403 27.6846 23.0814 26.383 23.0814H25.3101V22.8667C25.3101 22.2686 24.9588 21.7511 24.4517 21.5095V3.12419C24.4517 1.82265 23.3928 0.763672 22.0912 0.763672C20.7895 0.763672 19.7306 1.82265 19.7306 3.12419V10.2058H11.7907C10.4891 10.2058 9.43018 11.2647 9.43018 12.5663V14.283C9.43018 15.3785 10.1803 16.302 11.1938 16.5672L12.3435 29.7896C12.3743 30.144 12.6862 30.4076 13.0407 30.3752C13.3949 30.3444 13.6571 30.0322 13.6263 29.678L12.4929 16.6436H19.7306V21.5097C19.2235 21.7512 18.8723 22.2688 18.8723 22.8669V23.0815H17.7993C16.4976 23.0815 15.4387 24.1405 15.4387 25.442C15.4387 26.2187 15.8157 26.9089 16.3964 27.3394C16.3309 27.5582 16.2971 27.7866 16.2971 28.0172V34.0258C16.2971 38.1673 19.6665 41.5366 23.8079 41.5366H40.117C40.9453 41.5366 41.6192 40.8627 41.6192 40.0345V37.4592C41.6192 36.1038 41.2582 34.8311 40.6276 33.7321C40.6175 33.7125 40.6065 33.6936 40.5945 33.6752ZM21.0182 3.12419C21.0182 2.53251 21.4995 2.0512 22.0912 2.0512C22.6828 2.0512 23.1642 2.53251 23.1642 3.12419V21.3647H21.0182V3.12419H21.0182ZM11.7981 15.356C11.794 15.3561 11.7897 15.3561 11.7858 15.356C11.1964 15.3534 10.7177 14.8731 10.7177 14.283V12.5663C10.7177 11.9746 11.199 11.4933 11.7907 11.4933H19.7306V15.356H11.7981V15.356ZM40.3317 40.0343C40.3317 40.1527 40.2354 40.2489 40.117 40.2489H30.6749C27.2433 40.2489 24.4517 37.4573 24.4517 34.0257V29.7339C24.4517 29.3782 24.1634 29.0901 23.8079 29.0901C23.4524 29.0901 23.1642 29.3782 23.1642 29.7339V34.0257C23.1642 36.5755 24.4413 38.8326 26.3893 40.1909C23.3597 39.7742 21.0182 37.1682 21.0182 34.0257V29.7339C21.0182 29.3782 20.73 29.0901 20.3745 29.0901C20.0189 29.0901 19.7307 29.3782 19.7307 29.7339V34.0257C19.7307 36.5755 21.0078 38.8326 22.9559 40.191C19.9262 39.7744 17.5848 37.1684 17.5848 34.0259V28.0173C17.5848 27.9422 17.5927 27.8677 17.608 27.7949C17.6711 27.8001 17.735 27.8026 17.7994 27.8026H22.9497C23.3053 27.8026 23.5935 27.5145 23.5935 27.1589C23.5935 26.8032 23.3052 26.5151 22.9497 26.5151H17.7994C17.2077 26.5151 16.7264 26.0338 16.7264 25.4421C16.7264 24.8504 17.2077 24.3691 17.7994 24.3691H19.5162C19.8718 24.3691 20.16 24.081 20.16 23.7254V22.867C20.16 22.7486 20.2562 22.6524 20.3746 22.6524H23.8081C23.9263 22.6524 24.0227 22.7486 24.0227 22.867V23.7254C24.0227 24.081 24.311 24.3691 24.6665 24.3691H26.3832C26.9749 24.3691 27.4562 24.8504 27.4562 25.4421C27.4562 26.0338 26.9749 26.5151 26.3832 26.5151H25.5248C25.1693 26.5151 24.8811 26.8032 24.8811 27.1589C24.8811 27.5145 25.1693 27.8026 25.5248 27.8026H26.3832C26.4476 27.8026 26.5114 27.8001 26.5747 27.7949C26.59 27.8677 26.5978 27.9422 26.5978 28.0173V28.8756C26.5978 30.1772 27.6567 31.2362 28.9584 31.2362H34.1086C35.9819 31.2362 37.6645 32.0683 38.8064 33.3821H30.6749C29.6192 33.3821 28.5767 33.1131 27.66 32.6044C27.3491 32.432 26.9571 32.544 26.7847 32.855C26.6122 33.1658 26.7244 33.5577 27.0353 33.7301C28.1427 34.3447 29.4012 34.6694 30.6749 34.6694H39.6707C40.0017 35.3269 40.2197 36.0509 40.2986 36.8153H30.6749C29.6194 36.8153 28.577 36.5465 27.6603 36.0378C27.3493 35.8651 26.9575 35.9776 26.785 36.2884C26.6125 36.5993 26.7247 36.9912 27.0356 37.1636C28.1428 37.778 29.4013 38.1027 30.6749 38.1027H40.3316V40.0343H40.3317Z" fill="black" fill-opacity="0.7"/>
</g>
<defs>
<clipPath id="clip0_429_118">
<rect width="40.7728" height="40.7728" fill="white" transform="translate(0.846191 0.763672)"/>
</clipPath>
</defs>
</svg>
