<svg width="42" height="41" viewBox="0 0 42 41" fill="none" xmlns="http://www.w3.org/2000/svg">
<path d="M17.7269 13.0759C17.83 13.0334 17.9237 12.9711 18.0027 12.8924C18.0816 12.8138 18.1443 12.7204 18.1872 12.6175C18.23 12.5146 18.2522 12.4043 18.2524 12.2928C18.2527 12.1813 18.2309 12.0709 18.1885 11.9679C18.146 11.8648 18.0837 11.7711 18.005 11.6922C17.9264 11.6132 17.8329 11.5505 17.7301 11.5076C17.6272 11.4648 17.5168 11.4426 17.4054 11.4424C17.2939 11.4422 17.1835 11.4639 17.0805 11.5063L10.4239 14.2501C10.3209 14.2925 10.2272 14.3548 10.1482 14.4335C10.0692 14.5122 10.0065 14.6056 9.96369 14.7085C9.87714 14.9163 9.87667 15.1499 9.9624 15.3581C10.0481 15.5662 10.213 15.7318 10.4208 15.8183C10.6286 15.9049 10.8623 15.9053 11.0704 15.8196L17.7269 13.0759Z" fill="black" fill-opacity="0.7"/>
<path fill-rule="evenodd" clip-rule="evenodd" d="M22.5593 13.6627C22.5593 18.3484 18.761 22.1467 14.0753 22.1467C9.38959 22.1467 5.59131 18.3484 5.59131 13.6627C5.59131 8.97699 9.38959 5.17871 14.0753 5.17871C18.761 5.17871 22.5593 8.97699 22.5593 13.6627ZM20.8625 13.6627C20.8625 15.4628 20.1474 17.1891 18.8746 18.462C17.6017 19.7348 15.8754 20.4499 14.0753 20.4499C12.2752 20.4499 10.5489 19.7348 9.27603 18.462C8.00318 17.1891 7.28811 15.4628 7.28811 13.6627C7.28811 11.8626 8.00318 10.1363 9.27603 8.86343C10.5489 7.59059 12.2752 6.87551 14.0753 6.87551C15.8754 6.87551 17.6017 7.59059 18.8746 8.86343C20.1474 10.1363 20.8625 11.8626 20.8625 13.6627Z" fill="black" fill-opacity="0.7"/>
<path d="M30.9669 28.8706C31.0755 28.8956 31.1879 28.8989 31.2978 28.8805C31.4077 28.8621 31.5128 28.8222 31.6073 28.7631C31.7017 28.704 31.7836 28.6269 31.8483 28.5361C31.913 28.4454 31.9591 28.3428 31.9841 28.2343C32.0091 28.1257 32.0125 28.0132 31.9941 27.9034C31.9756 27.7935 31.9357 27.6883 31.8767 27.5939C31.8176 27.4994 31.7405 27.4175 31.6497 27.3528C31.559 27.2882 31.4564 27.242 31.3478 27.217L24.3316 25.6042C24.2224 25.5776 24.1091 25.5729 23.9981 25.5905C23.8871 25.608 23.7807 25.6475 23.6851 25.7065C23.5895 25.7655 23.5065 25.8429 23.4411 25.9342C23.3756 26.0255 23.329 26.1289 23.3038 26.2384C23.2786 26.3479 23.2755 26.4613 23.2945 26.5721C23.3135 26.6828 23.3543 26.7886 23.4146 26.8835C23.4748 26.9783 23.5533 27.0602 23.6455 27.1245C23.7376 27.1887 23.8417 27.234 23.9515 27.2577L30.9669 28.8706Z" fill="black" fill-opacity="0.7"/>
<path fill-rule="evenodd" clip-rule="evenodd" d="M27.6495 35.7219C32.3352 35.7219 36.1335 31.9236 36.1335 27.2379C36.1335 22.5522 32.3352 18.7539 27.6495 18.7539C22.9638 18.7539 19.1655 22.5522 19.1655 27.2379C19.1655 31.9236 22.9638 35.7219 27.6495 35.7219ZM27.6495 34.0251C29.4496 34.0251 31.1759 33.31 32.4488 32.0372C33.7216 30.7643 34.4367 29.038 34.4367 27.2379C34.4367 25.4378 33.7216 23.7115 32.4488 22.4386C31.1759 21.1658 29.4496 20.4507 27.6495 20.4507C25.8494 20.4507 24.1231 21.1658 22.8502 22.4386C21.5774 23.7115 20.8623 25.4378 20.8623 27.2379C20.8623 29.038 21.5774 30.7643 22.8502 32.0372C24.1231 33.31 25.8494 34.0251 27.6495 34.0251Z" fill="black" fill-opacity="0.7"/>
</svg>
