<svg width="42" height="32" viewBox="0 0 42 32" fill="none" xmlns="http://www.w3.org/2000/svg">
<g clip-path="url(#clip0_948_92)">
<path d="M14.2402 2.51562C21.7962 2.51578 27.9111 8.56041 27.9111 16.001C27.9111 19.7724 26.3336 23.1786 23.7998 25.6309L22.9121 26.4902H39.5459C39.8328 26.4902 40.0586 26.7222 40.0586 26.9893V28.9873C40.0584 29.2542 39.8326 29.4863 39.5459 29.4863H14.2402C6.68419 29.4863 0.568491 23.4415 0.568359 16.001C0.568359 8.56031 6.68411 2.51562 14.2402 2.51562ZM14.2402 9.50684C10.6173 9.50684 7.66602 12.4096 7.66602 16.001C7.66615 19.5922 10.6173 22.4941 14.2402 22.4941C17.863 22.494 20.8133 19.5921 20.8135 16.001C20.8135 12.4097 17.8631 9.50699 14.2402 9.50684ZM14.2402 12.5049C16.2035 12.505 17.7891 14.0795 17.7891 16.001C17.7889 17.9223 16.2034 19.4959 14.2402 19.4961C12.2769 19.4961 10.6906 17.9224 10.6904 16.001C10.6904 14.0794 12.2768 12.5049 14.2402 12.5049Z" stroke="black"/>
</g>
<defs>
<clipPath id="clip0_948_92">
<rect width="41.5558" height="31.966" fill="white" transform="translate(0.0683594 0.0175781)"/>
</clipPath>
</defs>
</svg>
