<svg width="41" height="42" viewBox="0 0 41 42" fill="none" xmlns="http://www.w3.org/2000/svg">
<path d="M28.5397 9.66797V16.2906C28.9518 16.2974 29.3601 16.2109 29.734 16.0375C30.108 15.8641 30.4378 15.6084 30.6989 15.2895C32.1013 15.6195 32.4313 19.0793 32.4313 19.0793C30.4511 20.5623 28.5397 25.5873 28.5397 25.5873V32.6324C28.5397 34.5795 25.3947 36.2178 21.1213 36.7005L21.1103 36.67C20.8277 35.9015 20.6735 35.0918 20.6538 34.2732C20.6294 33.7698 20.6966 33.2662 20.8524 32.7868C20.9949 32.3906 21.224 32.0292 21.3605 31.6305C21.519 31.0642 21.5829 30.4758 21.5497 29.8887L21.5362 23.2805" stroke="black" stroke-width="0.5" stroke-linecap="round" stroke-linejoin="round"/>
<path d="M8.48145 9.6681V32.6317C8.48145 33.537 9.16101 34.3752 10.3182 35.0624C10.1106 33.922 10.179 32.7485 10.5176 31.6399C10.5176 31.6399 10.9868 30.0814 11.5467 32.6674C12.1386 33.5484 12.3895 34.6148 12.2526 35.6673V35.9235C14.2769 36.5586 16.3889 36.8693 18.5104 36.844C18.731 36.8525 20.8375 36.7711 21.1217 36.6998M20.0892 10.5301C24.7639 8.93254 13.5905 7.8941 14.3676 10.6913C15.9304 12.4721 24.3601 12.3677 25.1491 9.74616C25.9101 6.18712 10.5651 6.62744 12.0642 10.3426" stroke="black" stroke-width="0.5" stroke-linecap="round" stroke-linejoin="round"/>
<path d="M15.6776 29.3342C15.4337 27.2521 15.3232 25.1566 15.3467 23.0603C15.3869 22.6074 15.3254 22.1511 15.1668 21.725C14.9811 21.4054 14.7628 21.1061 14.5153 20.8316C13.823 19.742 13.5513 18.4376 13.7509 17.1623C13.929 15.9785 14.0475 14.789 14.1063 13.5939L14.1021 13.4539M14.1021 13.4539C15.5537 13.7441 17.0308 13.8874 18.5112 13.8815C24.0504 13.8815 28.5401 11.9955 28.5401 9.6692C28.5401 7.34289 24.0504 5.45605 18.5112 5.45605C12.972 5.45605 8.48145 7.34205 8.48145 9.6692C8.48145 11.2761 10.493 12.9525 14.1021 13.4539Z" stroke="black" stroke-width="0.5" stroke-linecap="round" stroke-linejoin="round"/>
</svg>
