<svg width="29" height="26" viewBox="0 0 29 26" fill="none" xmlns="http://www.w3.org/2000/svg">
<path fill-rule="evenodd" clip-rule="evenodd" d="M28.6588 1.71928L27.8916 1.61081L27.6903 0.943365L28.8477 0.666992L28.6588 1.71928ZM18.3829 11.2749L17.7214 11.6369L17.7199 11.6355L17.7175 11.6321L17.7098 11.621L17.6833 11.5816L17.5901 11.4386C17.4813 11.2694 17.3763 11.0982 17.2753 10.9253C16.9553 10.3816 16.6764 9.8195 16.4404 9.24284C16.1777 8.5906 15.9523 7.84371 15.9173 7.12099C15.8831 6.40104 16.0339 5.6196 16.6371 5.00674C17.1789 4.45676 18.2002 3.9503 19.2737 3.51225C20.386 3.05693 21.695 2.62026 22.9348 2.24232C24.4705 1.77622 26.0216 1.35134 27.5861 0.968239L27.6639 0.948893L27.6911 0.941983L27.8932 1.61011L28.6604 1.71859L28.6557 1.74416L28.6425 1.81739C28.5649 2.24127 28.4835 2.6646 28.3984 3.08733C28.1913 4.1269 27.9653 5.16343 27.7206 6.19652C27.4439 7.35798 27.1221 8.5754 26.7808 9.59453C26.6288 10.0605 26.4506 10.5194 26.2468 10.9695C26.0696 11.3495 25.8597 11.7185 25.6048 11.9782C25.0591 12.5324 24.2095 12.7058 23.4672 12.75C22.693 12.7963 21.8349 12.7127 21.063 12.5911C20.3746 12.481 19.6929 12.3403 19.0203 12.1696C18.7451 12.1007 18.4714 12.027 18.1995 11.9485L18.1505 11.9333L18.1373 11.9292L18.1334 11.9285H18.1318L18.3829 11.2749ZM18.3829 11.2749L17.7214 11.6369L17.8676 11.8477L18.1318 11.9285L18.3829 11.2749ZM18.9053 10.6993C19.7013 10.9193 20.5114 11.097 21.3312 11.2313C22.0494 11.344 22.7677 11.4075 23.3631 11.3716C23.9919 11.3343 24.3075 11.1975 24.4342 11.069C24.515 10.9861 24.6472 10.7898 24.8104 10.4402C24.9934 10.0346 25.1534 9.62117 25.29 9.20139C25.6141 8.23408 25.9258 7.05743 26.1994 5.91117C26.462 4.80218 26.7025 3.68914 26.9208 2.57258L26.6806 2.63477C25.8185 2.8607 24.6542 3.17922 23.4392 3.54956C22.222 3.92059 20.9682 4.33999 19.9227 4.76768C18.8376 5.21125 18.1054 5.61407 17.8069 5.91739C17.5683 6.15921 17.4455 6.53163 17.4711 7.06157C17.496 7.58875 17.6662 8.18779 17.9041 8.77577C18.1756 9.44111 18.5106 10.0846 18.9053 10.6993ZM4.0363 3.45836L3.83498 4.1258L3.06701 4.23428L2.87891 3.18268L4.0363 3.45836ZM11.5621 11.9796L12.2236 12.341L12.2251 12.3396L12.2267 12.3368L12.2329 12.3279L12.2555 12.2947L12.3332 12.1772C12.7049 11.6003 13.0209 10.9963 13.2776 10.3718C13.4937 9.83566 13.6818 9.21452 13.7106 8.60926C13.7401 8.00608 13.6142 7.33311 13.0903 6.80109C12.627 6.32987 11.7696 5.90979 10.8991 5.55327C9.98886 5.18085 8.92007 4.82433 7.91036 4.51687C6.65972 4.13758 5.39656 3.79173 4.12258 3.47978L4.05885 3.46389L4.0363 3.45836L3.83498 4.1258L3.06701 4.23428L3.0709 4.255L3.08178 4.31511L3.12376 4.54036C3.33344 5.65797 3.56953 6.77154 3.83187 7.88033C4.05729 8.82552 4.32002 9.81839 4.59829 10.651C4.7382 11.0669 4.88434 11.4545 5.03746 11.7813C5.18282 12.0922 5.36082 12.4094 5.58468 12.636C6.06661 13.1266 6.80737 13.2717 7.42066 13.3076C8.06738 13.3463 8.77705 13.2765 9.41055 13.1777C10.2061 13.0513 10.9905 12.8749 11.758 12.6498L11.7976 12.6381L11.8093 12.6346L11.8132 12.6332L11.5621 11.9796ZM11.5621 11.9796L12.2236 12.341L12.0775 12.5524L11.8132 12.6332L11.5621 11.9796ZM11.039 11.4034C11.0882 11.3251 11.1457 11.23 11.2115 11.118C11.3965 10.8016 11.6266 10.3704 11.814 9.90476C12.0044 9.43354 12.1381 8.96025 12.1575 8.55053C12.1777 8.13666 12.0798 7.87342 11.9204 7.71036C11.7005 7.48788 11.133 7.17005 10.2493 6.80869C9.40666 6.46391 8.39306 6.12467 7.40589 5.82411C6.54597 5.56309 5.67986 5.31844 4.80816 5.09034L4.81127 5.10761C4.94341 5.77091 5.13152 6.66636 5.35305 7.59428C5.57458 8.52427 5.8272 9.47569 6.08837 10.2571C6.21974 10.6482 6.34877 10.9861 6.47314 11.2514C6.60528 11.5326 6.70477 11.6756 6.75452 11.7267C6.81826 11.791 7.02424 11.8995 7.52482 11.9292C7.99198 11.9568 8.56251 11.9071 9.14083 11.8166C9.78269 11.7141 10.4167 11.5766 11.039 11.4034ZM9.33671 17.99C9.13927 17.9997 9.04289 18.0246 9.01801 18.0343C8.6659 18.1759 7.59633 18.5076 6.6729 18.7874C6.19875 18.9318 5.74403 19.0672 5.40824 19.1674L5.38647 19.1743V22.9074C5.52328 22.9019 5.67019 22.897 5.8202 22.8922C6.46381 22.8715 7.22945 22.8508 7.56135 22.8632C8.95427 22.9122 10.0005 23.2052 10.969 23.4767L10.99 23.483C11.8979 23.7372 12.7389 23.9708 13.8404 24.0447C14.1513 24.0654 14.4537 24.0924 14.7358 24.1172H14.7397C15.8233 24.214 16.5368 24.2623 17.0895 24.0841C17.5193 23.9452 19.0934 23.2964 20.6806 22.5868C21.4657 22.2358 22.2352 21.8786 22.8469 21.5725C23.154 21.4191 23.4144 21.2823 23.6141 21.1676C23.7131 21.1105 23.7929 21.0622 23.8535 21.0225L23.9235 20.9742L23.9453 20.9576C24.023 20.8878 24.1054 20.6446 23.9717 20.4159C23.9088 20.309 23.8048 20.2256 23.6786 20.181C23.5232 20.1209 23.2589 20.0746 22.8392 20.1361C21.8924 20.2743 20.7614 20.6792 19.632 21.0875L19.6165 21.0937C19.0615 21.2941 18.5049 21.4951 18.0114 21.6416C17.5372 21.7819 17.011 21.9076 16.5524 21.8834C15.9228 21.8489 14.8182 21.7038 13.9072 21.5725C13.3837 21.4973 12.8608 21.4185 12.3386 21.3362L12.2376 21.3203L12.2018 21.3141L12.3495 19.9433L15.9018 19.9813H15.9095C15.951 19.9773 15.9921 19.9704 16.0324 19.9606C16.1552 19.9329 16.3658 19.8645 16.6309 19.698C16.7125 19.6462 16.8198 19.5509 16.92 19.423C16.9615 19.3696 16.9967 19.3176 17.0257 19.2669C16.5927 19.2421 16.1624 19.1881 15.7385 19.1052C15.5078 19.0605 15.2789 19.0087 15.0522 18.9498L15.0258 18.9428L10.6752 18.0819L10.634 18.0757L10.4708 18.0536C10.293 18.0304 10.1144 18.0126 9.93522 18.0004C9.73617 17.9856 9.53626 17.9821 9.33671 17.99ZM10.8276 17.4055L10.9683 16.7263L10.9822 16.7284L15.4268 17.6073L15.4595 17.6163L15.4657 17.6183L15.4952 17.6259L15.6181 17.657C15.7261 17.6833 15.8816 17.7192 16.0666 17.7551C16.4443 17.8277 16.9169 17.8947 17.3538 17.8947C17.7914 17.8947 18.2671 18.0398 18.5236 18.453C18.7428 18.8067 18.6884 19.1895 18.6114 19.4424C18.5398 19.6659 18.4333 19.8794 18.2951 20.0767C18.5319 19.9937 18.7822 19.9044 19.0459 19.8086L19.0941 19.7906C20.1653 19.4037 21.4494 18.9394 22.5865 18.7729C23.9079 18.5808 24.899 19.0023 25.3522 19.7816C25.7517 20.4691 25.6631 21.3756 25.0529 21.927C24.8998 22.0652 24.672 22.2054 24.4544 22.3305C24.1772 22.4864 23.8951 22.6354 23.6087 22.7775C22.9674 23.0981 22.1738 23.4664 21.3778 23.8222C19.8061 24.5249 18.1505 25.2124 17.6188 25.3837C16.6969 25.6808 15.6305 25.5862 14.683 25.5019L14.5842 25.4929C14.2975 25.4668 14.0104 25.4437 13.723 25.4238C12.4327 25.3367 11.444 25.0597 10.5407 24.8068L10.5213 24.8013C9.54969 24.529 8.67445 24.2865 7.49917 24.2444C7.24111 24.2354 6.5462 24.252 5.87617 24.2741C5.49886 24.2862 5.12161 24.2998 4.74442 24.3148L4.64415 24.319L3.8311 24.3521V18.178L4.51279 17.9769C5.06593 17.8135 5.61834 17.6482 6.16999 17.4808C7.13695 17.1872 8.11168 16.8825 8.37752 16.7761C8.66279 16.6614 8.98692 16.6241 9.24654 16.6103C9.52248 16.5964 9.80619 16.6068 10.0542 16.6234C10.3526 16.6446 10.6498 16.6775 10.9449 16.7222L10.9613 16.7249H10.9659L10.9675 16.7256H10.969L10.8276 17.4055Z" fill="black"/>
<path fill-rule="evenodd" clip-rule="evenodd" d="M23.3807 5.7146C23.4583 5.77357 23.522 5.84555 23.5683 5.92643C23.6146 6.00731 23.6425 6.0955 23.6504 6.18596C23.6584 6.27643 23.6462 6.3674 23.6146 6.45368C23.583 6.53995 23.5325 6.61985 23.4662 6.68881C21.1491 9.09187 18.2645 12.6136 16.9913 15.4761C16.9537 15.5605 16.8978 15.6375 16.8268 15.7026C16.7558 15.7678 16.671 15.8199 16.5773 15.856C16.4836 15.892 16.3828 15.9113 16.2808 15.9128C16.1787 15.9142 16.0773 15.8978 15.9824 15.8644C15.8874 15.831 15.8008 15.7813 15.7275 15.7182C15.6542 15.655 15.5955 15.5797 15.555 15.4964C15.5144 15.4131 15.4927 15.3236 15.4911 15.2328C15.4894 15.1421 15.5079 15.0519 15.5455 14.9676C16.9159 11.8867 19.938 8.22406 22.2847 5.78991C22.4189 5.65083 22.6098 5.56484 22.8153 5.55085C23.0208 5.53685 23.2242 5.596 23.3807 5.71529M8.01349 7.93111C7.93333 7.98734 7.86643 8.05707 7.8166 8.1363C7.76677 8.21553 7.73499 8.30271 7.72308 8.39286C7.71117 8.48302 7.71936 8.57437 7.74718 8.66171C7.77501 8.74904 7.82192 8.83065 7.88523 8.90187C9.62794 10.8676 11.5308 13.3833 12.434 15.4699C12.5115 15.6364 12.6592 15.7694 12.8456 15.8405C13.0319 15.9116 13.2421 15.9152 13.4313 15.8505C13.6206 15.7858 13.7739 15.6579 13.8585 15.4941C13.9432 15.3303 13.9525 15.1436 13.8844 14.9738C12.8965 12.6909 10.8778 10.044 9.10559 8.04649C8.97806 7.90259 8.79145 7.80959 8.58681 7.78796C8.38216 7.76632 8.17544 7.81781 8.01349 7.93111Z" fill="black"/>
<path d="M0.722168 16.6045H5.38596V25.5866H0.722168V16.6045Z" fill="black"/>
</svg>
