<svg width="28" height="28" viewBox="0 0 28 28" fill="none" xmlns="http://www.w3.org/2000/svg">
<g clip-path="url(#clip0_435_59)">
<path fill-rule="evenodd" clip-rule="evenodd" d="M22.352 1.29976C21.962 -0.440237 19.496 -0.430237 19.122 1.31176L19.08 1.50576L20.058 1.71576L19.078 1.50576C18.8635 2.53748 18.3463 3.48183 17.5925 4.21819C16.8386 4.95455 15.8824 5.44948 14.846 5.63976C13.054 5.95776 13.054 8.54576 14.846 8.86376C15.8823 9.05341 16.8385 9.54759 17.5927 10.2832C18.3468 11.0188 18.8646 11.9625 19.08 12.9938L19.12 13.1878C19.496 14.9278 21.96 14.9418 22.352 13.2018L22.402 12.9758C22.6267 11.9476 23.1501 11.0088 23.9066 10.2773C24.6631 9.54567 25.6189 9.05392 26.654 8.86376C28.45 8.54576 28.45 5.95376 26.654 5.63576C25.6186 5.44597 24.6623 4.95438 23.9054 4.22276C23.1486 3.49115 22.6248 2.55215 22.4 1.52376L22.352 1.29976ZM14.496 1.04376C12.1734 -0.105875 9.4962 -0.312527 7.02474 0.467066C4.55327 1.24666 2.47918 2.95206 1.23664 5.22626C-0.00590146 7.50046 -0.320558 10.1672 0.35854 12.6681C1.03764 15.169 2.65784 17.3103 4.87998 18.6438V20.8318C4.87998 21.4221 5.1145 21.9883 5.53196 22.4058C5.94942 22.8232 6.51561 23.0578 7.10598 23.0578H12.964C13.2563 23.0578 13.5458 23.0002 13.8158 22.8883C14.0859 22.7765 14.3313 22.6125 14.538 22.4058C14.7447 22.1991 14.9087 21.9537 15.0205 21.6836C15.1324 21.4135 15.19 21.1241 15.19 20.8318V18.6478C16.062 18.1278 16.848 17.4798 17.522 16.7278C17.739 16.4802 17.8495 16.1571 17.8297 15.8285C17.8098 15.4999 17.6612 15.1924 17.416 14.9728C17.1708 14.7531 16.8489 14.6391 16.5201 14.6554C16.1913 14.6717 15.8823 14.817 15.66 15.0598C15.0182 15.7727 14.2473 16.3576 13.388 16.7838C13.1791 16.8874 13.0031 17.047 12.8795 17.2447C12.7559 17.4424 12.6896 17.6706 12.688 17.9038V20.5598H7.37998V17.9058C7.37892 17.6732 7.31353 17.4455 7.19104 17.2478C7.06855 17.0501 6.89375 16.8902 6.68598 16.7858C4.91737 15.8847 3.57568 14.3222 2.95232 12.4377C2.32896 10.5532 2.47427 8.49885 3.35668 6.72085C4.23909 4.94285 5.78735 3.58479 7.66519 2.94162C9.54303 2.29845 11.5988 2.42212 13.386 3.28576C13.6827 3.43024 14.0245 3.45152 14.3368 3.34496C14.6492 3.2384 14.9067 3.01264 15.0532 2.71693C15.1998 2.42123 15.2234 2.07957 15.119 1.7665C15.0146 1.45343 14.7907 1.19234 14.496 1.04376ZM6.24998 25.4998C5.91846 25.4998 5.60052 25.6315 5.3661 25.8659C5.13168 26.1003 4.99998 26.4182 4.99998 26.7498C4.99998 27.0813 5.13168 27.3992 5.3661 27.6336C5.60052 27.8681 5.91846 27.9998 6.24998 27.9998H13.75C14.0815 27.9998 14.3994 27.8681 14.6339 27.6336C14.8683 27.3992 15 27.0813 15 26.7498C15 26.4182 14.8683 26.1003 14.6339 25.8659C14.3994 25.6315 14.0815 25.4998 13.75 25.4998H6.24998Z" fill="black"/>
</g>
<defs>
<clipPath id="clip0_435_59">
<rect width="28" height="28" fill="white"/>
</clipPath>
</defs>
</svg>
