<svg width="41" height="39" viewBox="0 0 41 39" fill="none" xmlns="http://www.w3.org/2000/svg">
<path d="M20.6745 8.34515e-05C19.1026 8.34515e-05 17.6346 0.637621 16.3833 1.6816C15.1322 2.72583 14.0611 4.18008 13.1682 5.94161C12.9811 6.31063 12.8023 6.69415 12.6315 7.08976C12.1708 7.02464 11.7081 6.97111 11.244 6.92925C10.7041 6.88133 10.1773 6.85158 9.66553 6.84091C8.12922 6.80841 6.72511 6.94717 5.49447 7.27944C3.85374 7.72255 2.49987 8.53643 1.71394 9.74875C0.928006 10.9613 0.813858 12.4126 1.20336 13.8998C1.59306 15.387 2.47134 16.9403 3.73772 18.5099C4.00344 18.8391 4.28731 19.1693 4.5869 19.4994C4.29381 19.8217 4.01101 20.1513 3.73884 20.4878C2.47237 22.0573 1.59409 23.6107 1.20449 25.0979C0.814887 26.5852 0.929129 28.0364 1.71506 29.2487C2.501 30.4613 3.85486 31.2751 5.49559 31.7181C7.13642 32.1613 9.08591 32.2603 11.2451 32.0683C11.6977 32.0279 12.1601 31.9741 12.6306 31.9081C12.7975 32.2959 12.9768 32.6795 13.1682 33.0583C14.0611 34.8201 15.1321 36.2741 16.3833 37.3182C17.6345 38.3624 19.1027 39 20.6745 39C22.2463 39 23.7144 38.3623 24.9656 37.3182C26.2167 36.274 27.2879 34.82 28.1807 33.0583C28.3721 32.6796 28.5514 32.296 28.7184 31.9082C29.1882 31.9741 29.6503 32.028 30.1025 32.0683C32.2618 32.2603 34.2114 32.1612 35.852 31.7181C37.4929 31.275 38.8468 30.4612 39.6327 29.2487C40.4187 28.0362 40.5328 26.5851 40.1433 25.0979C39.7536 23.6107 38.8752 22.0574 37.609 20.4878C37.3367 20.1513 37.0538 19.8217 36.7608 19.4994C37.0543 19.1768 37.3375 18.8469 37.61 18.51C38.8764 16.9404 39.7547 15.3871 40.1443 13.8999C40.5339 12.4127 40.4196 10.9614 39.6337 9.74883C38.8477 8.53651 37.4939 7.72263 35.8531 7.27952C34.6226 6.94725 33.2184 6.80849 31.6823 6.84091C31.1701 6.85158 30.6432 6.88133 30.1035 6.92925C29.6506 6.96958 29.1878 7.02367 28.7171 7.08967C28.5504 6.70257 28.3714 6.31973 28.1804 5.94161C27.2875 4.17983 26.2165 2.72558 24.9652 1.68152C23.714 0.637455 22.2458 0 20.6741 0L20.6745 8.34515e-05ZM20.6745 1.55743C21.7229 1.55743 22.7509 1.9677 23.7702 2.81834C24.7893 3.6688 25.7628 4.95621 26.5871 6.58248C26.7211 6.84781 26.8486 7.11576 26.9694 7.38611C24.9655 7.78297 22.8432 8.39184 20.6739 9.20539C18.5051 8.392 16.3831 7.7833 14.3796 7.38644C14.5033 7.11059 14.6304 6.84174 14.7619 6.58239C15.5862 4.95605 16.5597 3.66864 17.579 2.818C18.5982 1.96753 19.6261 1.55726 20.6747 1.55726L20.6745 1.55743ZM9.11098 8.39592C9.27977 8.39442 9.45124 8.39542 9.6254 8.39892C10.0895 8.40809 10.572 8.43476 11.0703 8.47917C11.389 8.50751 11.7147 8.54376 12.0456 8.58651C11.4294 10.3305 10.9603 12.2719 10.6663 14.3519C8.79053 15.6186 7.13726 16.9515 5.74953 18.299C5.54644 18.0702 5.34906 17.8374 5.15755 17.6008C3.98847 16.1519 3.22359 14.7573 2.90613 13.5457C2.58867 12.3342 2.70403 11.3362 3.22817 10.5275C3.75232 9.71875 4.66531 9.13096 6.00177 8.77003C6.87893 8.53309 7.92918 8.40542 9.11089 8.39584L9.11098 8.39592ZM32.2369 8.39592C33.4186 8.4055 34.4689 8.53318 35.346 8.77011C36.6827 9.13096 37.5953 9.71875 38.1195 10.5275C38.6437 11.3362 38.759 12.3342 38.4417 13.5457C38.1245 14.7572 37.3591 16.1519 36.1903 17.6008C35.9988 17.8374 35.8015 18.0703 35.5985 18.2992C34.2109 16.9518 32.5581 15.6193 30.6829 14.3527C30.3891 12.2724 29.9194 10.3308 29.3032 8.58651C29.6338 8.54376 29.9591 8.50734 30.2775 8.47917C30.7578 8.4358 31.2399 8.409 31.7225 8.39884C31.8939 8.39537 32.0654 8.39434 32.2369 8.39575V8.39592ZM27.5662 8.86595C28.0312 10.1525 28.4162 11.5721 28.7036 13.0912C27.7753 12.5327 26.8252 12.0036 25.8549 11.5049C24.8855 11.006 23.8965 10.5378 22.8899 10.1012C24.5104 9.56324 26.083 9.15055 27.5662 8.86611V8.86595ZM13.7827 8.8662C15.2657 9.15071 16.838 9.56341 18.4581 10.1013C17.4515 10.5379 16.4626 11.0061 15.4931 11.5049C14.5232 12.0034 13.5735 12.5322 12.6455 13.0903C12.9328 11.5716 13.3177 10.1524 13.7827 8.8662ZM20.6739 10.9047C22.0968 11.4637 23.541 12.1134 24.9807 12.8538C26.4209 13.5945 27.7754 14.3839 29.0306 15.2022C29.1986 16.5796 29.289 18.0189 29.289 19.5C29.289 20.9803 29.1989 22.419 29.031 23.7958C27.7758 24.614 26.4215 25.4032 24.9817 26.1437C23.5418 26.8842 22.0971 27.5341 20.674 28.0932C19.2507 27.5341 17.8061 26.8842 16.3662 26.1437C14.9267 25.4034 13.5729 24.6145 12.3183 23.7966C12.1503 22.4196 12.06 20.9806 12.06 19.4999C12.06 18.0186 12.1503 16.5791 12.3184 15.2016C13.5734 14.3834 14.9275 13.5941 16.3672 12.8538C17.807 12.1135 19.2512 11.4637 20.6739 10.9048V10.9047ZM20.7922 13.2478L15.7864 15.9994L20.7922 18.7512L25.7981 15.9994L20.7922 13.2477V13.2478ZM10.4291 16.5092C10.3504 17.5045 10.3112 18.502 10.3115 19.4998C10.3115 20.5163 10.3517 21.5142 10.4292 22.4886C9.09592 21.5077 7.90832 20.501 6.88997 19.499C7.90832 18.4971 9.09583 17.4902 10.4291 16.5092ZM30.92 16.51C32.2526 17.4909 33.44 18.4974 34.4579 19.4991C33.44 20.5008 32.2526 21.5073 30.92 22.4879C30.9986 21.4934 31.0378 20.4968 31.0375 19.4998C31.0375 18.4828 30.9973 17.4847 30.9199 16.51H30.92ZM14.6586 17.2095V22.643L19.916 25.5329V20.0997L14.6586 17.2095ZM26.9209 17.2124L21.6648 20.1017V25.5324L26.921 22.643L26.9209 17.2124ZM5.74934 20.6992C7.13726 22.0468 8.79034 23.3794 10.6659 24.6461C10.9597 26.7258 11.429 28.667 12.045 30.4111C11.7148 30.4536 11.3895 30.49 11.0714 30.5183C9.07814 30.6956 7.33945 30.5883 6.0029 30.2275C4.66625 29.8666 3.75363 29.2786 3.22939 28.4699C2.70525 27.6611 2.58988 26.6631 2.90725 25.4516C3.22462 24.2401 3.98959 22.8454 5.15867 21.3965C5.34977 21.1602 5.54665 20.9277 5.74934 20.6992ZM35.5984 20.6995C35.8049 20.9328 36.0026 21.1653 36.189 21.3965C37.358 22.8454 38.123 24.24 38.4404 25.4515C38.7577 26.663 38.6427 27.661 38.1185 28.4698C37.5942 29.2785 36.6814 29.8665 35.3447 30.2274C34.0083 30.5882 32.2698 30.6955 30.2766 30.5182C29.9515 30.4889 29.6273 30.4532 29.304 30.4112C29.9201 28.6667 30.3893 26.7251 30.6831 24.645C32.5581 23.3786 34.211 22.0463 35.5985 20.6993L35.5984 20.6995ZM28.704 25.9067C28.4167 27.4256 28.0318 28.8452 27.5668 30.1317C26.0834 29.8473 24.5107 29.4343 22.8901 28.8965C23.8969 28.4596 24.8862 27.9913 25.8561 27.4924C26.8261 26.9938 27.776 26.4649 28.7041 25.9067H28.704ZM12.6452 25.9075C13.5728 26.4655 14.5222 26.9941 15.4917 27.4924C16.4616 27.9913 17.4509 28.4596 18.4577 28.8965C16.8376 29.4343 15.2653 29.8471 13.7821 30.1316C13.317 28.8453 12.9324 27.4261 12.6452 25.9075ZM20.7262 25.9784L20.7899 26.0134L20.8532 25.9784H20.7263H20.7262ZM20.6739 29.7925C22.8436 30.6059 24.966 31.2147 26.9701 31.6115C26.8491 31.8826 26.7214 32.1513 26.5871 32.4174C25.7628 34.0435 24.7893 35.3309 23.7701 36.1815C22.7509 37.032 21.7229 37.4424 20.6745 37.4424C19.6261 37.4424 18.5981 37.032 17.5789 36.1815C16.5597 35.3309 15.5862 34.0435 14.7619 32.4173C14.6276 32.1512 14.4999 31.8825 14.3788 31.6114C16.3826 31.2145 18.5048 30.6058 20.674 29.7925H20.6739Z" fill="black"/>
</svg>
