<svg width="25" height="24" viewBox="0 0 25 24" fill="none" xmlns="http://www.w3.org/2000/svg">
<mask id="mask0_27_923" style="mask-type:alpha" maskUnits="userSpaceOnUse" x="0" y="0" width="25" height="24">
<rect x="0.5" width="24" height="24" fill="#D9D9D9"/>
</mask>
<g mask="url(#mask0_27_923)">
<path d="M13.375 12C13.9937 12 14.5234 11.7797 14.9641 11.3391C15.4047 10.8984 15.625 10.3687 15.625 9.75C15.625 9.13125 15.4047 8.60156 14.9641 8.16094C14.5234 7.72031 13.9937 7.5 13.375 7.5C12.7563 7.5 12.2266 7.72031 11.7859 8.16094C11.3453 8.60156 11.125 9.13125 11.125 9.75C11.125 10.3687 11.3453 10.8984 11.7859 11.3391C12.2266 11.7797 12.7563 12 13.375 12ZM13.375 20.2688C15.6625 18.1688 17.3594 16.2609 18.4656 14.5453C19.5719 12.8297 20.125 11.3062 20.125 9.975C20.125 7.93125 19.4734 6.25781 18.1703 4.95469C16.8672 3.65156 15.2688 3 13.375 3C11.4812 3 9.88281 3.65156 8.57969 4.95469C7.27656 6.25781 6.625 7.93125 6.625 9.975C6.625 11.3062 7.17813 12.8297 8.28438 14.5453C9.39062 16.2609 11.0875 18.1688 13.375 20.2688ZM13.375 23.25C10.3562 20.6812 8.10156 18.2953 6.61094 16.0922C5.12031 13.8891 4.375 11.85 4.375 9.975C4.375 7.1625 5.27969 4.92188 7.08906 3.25313C8.89844 1.58438 10.9938 0.75 13.375 0.75C15.7562 0.75 17.8516 1.58438 19.6609 3.25313C21.4703 4.92188 22.375 7.1625 22.375 9.975C22.375 11.85 21.6297 13.8891 20.1391 16.0922C18.6484 18.2953 16.3938 20.6812 13.375 23.25Z" fill="white"/>
</g>
</svg>
