<svg width="30" height="30" viewBox="0 0 30 30" fill="none" xmlns="http://www.w3.org/2000/svg">
<g clip-path="url(#clip0_27_900)">
<path d="M28.3752 20.6249L25.9377 16.7499C25.8475 16.6104 25.7306 16.49 25.5938 16.3956C25.457 16.3013 25.3029 16.2348 25.1404 16.2C24.9779 16.1651 24.8101 16.1627 24.6467 16.1927C24.4832 16.2227 24.3273 16.2846 24.1877 16.3749C24.0482 16.4652 23.9278 16.5821 23.8335 16.7189C23.7391 16.8557 23.6726 17.0097 23.6378 17.1722C23.603 17.3347 23.6005 17.5025 23.6305 17.666C23.6605 17.8294 23.7225 17.9854 23.8127 18.1249L26.2502 21.9999H15.9377L17.4377 20.4374C17.6626 20.1853 17.7815 19.8562 17.7699 19.5186C17.7582 19.181 17.6169 18.8609 17.3752 18.6249C17.1256 18.4118 16.8021 18.3054 16.4746 18.3288C16.1472 18.3522 15.8421 18.5035 15.6252 18.7499L12.1252 22.3749C11.91 22.6155 11.791 22.9271 11.791 23.2499C11.791 23.5727 11.91 23.8843 12.1252 24.1249L15.6877 27.7499C15.799 27.8711 15.9342 27.9679 16.0848 28.0342C16.2355 28.1004 16.3982 28.1346 16.5627 28.1346C16.7273 28.1346 16.89 28.1004 17.0406 28.0342C17.1913 27.9679 17.3265 27.8711 17.4377 27.7499C17.559 27.6387 17.6558 27.5034 17.722 27.3528C17.7882 27.2022 17.8224 27.0394 17.8224 26.8749C17.8224 26.7104 17.7882 26.5476 17.722 26.397C17.6558 26.2464 17.559 26.1111 17.4377 25.9999L16.0627 24.5624H26.2502C26.7005 24.567 27.1433 24.4468 27.5294 24.2152C27.9155 23.9835 28.2299 23.6494 28.4377 23.2499C28.6587 22.8454 28.7693 22.3898 28.7583 21.929C28.7473 21.4682 28.6152 21.0184 28.3752 20.6249Z" fill="#2E67B1"/>
<path d="M12.3739 9.125L14.9364 4.4375L19.6864 11.8125L17.6864 11.375C17.356 11.3186 17.0165 11.3908 16.7376 11.5767C16.4586 11.7627 16.2614 12.0483 16.1864 12.375C16.1499 12.5312 16.1454 12.6931 16.1732 12.8511C16.201 13.009 16.2605 13.1597 16.3481 13.294C16.4357 13.4284 16.5496 13.5436 16.6829 13.6327C16.8163 13.7218 16.9663 13.7829 17.1239 13.8125L21.9989 14.875H22.2489C22.4914 14.8805 22.7303 14.8154 22.9364 14.6875C23.2039 14.4934 23.3837 14.2013 23.4364 13.875L24.4989 8.875C24.5553 8.54456 24.4831 8.20507 24.2972 7.92615C24.1112 7.64723 23.8256 7.45004 23.4989 7.375C23.1685 7.31861 22.829 7.39078 22.5501 7.57673C22.2711 7.76267 22.0739 8.04829 21.9989 8.375L21.6239 10.25L17.0614 3.0625C16.8478 2.70479 16.546 2.40781 16.1849 2.19992C15.8239 1.99203 15.4155 1.88016 14.9989 1.875C14.5807 1.87967 14.1697 1.98421 13.8 2.17989C13.4304 2.37558 13.1129 2.65676 12.8739 3L10.1864 7.875C10.0641 8.16126 10.0531 8.48284 10.1554 8.77682C10.2577 9.07081 10.466 9.31605 10.7396 9.46455C11.0131 9.61306 11.3323 9.65416 11.6345 9.5798C11.9368 9.50544 12.2005 9.32098 12.3739 9.0625V9.125Z" fill="#2E67B1"/>
<path d="M10.1878 12.3755C10.162 12.2062 10.098 12.045 10.0005 11.9042C9.90303 11.7634 9.77469 11.6467 9.62527 11.563C9.49053 11.4685 9.33761 11.403 9.17622 11.3707C9.01483 11.3384 8.8485 11.3401 8.68777 11.3755L3.81277 12.313C3.49764 12.4011 3.2268 12.6038 3.05337 12.8813C2.87994 13.1588 2.81642 13.4911 2.87527 13.813C2.90482 13.9706 2.966 14.1206 3.0551 14.254C3.14421 14.3873 3.25941 14.5012 3.39374 14.5888C3.52807 14.6764 3.67876 14.7359 3.83671 14.7637C3.99466 14.7915 4.1566 14.787 4.31277 14.7505L5.93777 14.438L1.68777 20.563C1.42641 20.958 1.27679 21.4164 1.25479 21.8895C1.23278 22.3626 1.3392 22.8329 1.56277 23.2505C1.77057 23.65 2.08498 23.9841 2.47111 24.2158C2.85724 24.4474 3.29999 24.5676 3.75027 24.563H8.18777C8.51929 24.563 8.83723 24.4313 9.07165 24.1969C9.30607 23.9624 9.43777 23.6445 9.43777 23.313C9.43777 22.9815 9.30607 22.6635 9.07165 22.4291C8.83723 22.1947 8.51929 22.063 8.18777 22.063H3.75027L8.25027 15.6255L8.62527 17.938C8.68371 18.2246 8.8408 18.4816 9.0692 18.6643C9.29759 18.847 9.58284 18.9439 9.87527 18.938H10.1253C10.452 18.8629 10.7376 18.6657 10.9235 18.3868C11.1095 18.1079 11.1817 17.7684 11.1253 17.438L10.1878 12.3755Z" fill="#2E67B1"/>
</g>
<defs>
<clipPath id="clip0_27_900">
<rect width="30" height="30" fill="white"/>
</clipPath>
</defs>
</svg>
