<svg width="29" height="27" viewBox="0 0 29 27" fill="none" xmlns="http://www.w3.org/2000/svg">
<path d="M18.2356 6.88739C18.278 6.78831 18.2927 6.68151 18.2786 6.5762C18.2644 6.4709 18.2218 6.37025 18.1544 6.28292C18.087 6.19559 17.9969 6.12421 17.8917 6.07492C17.7866 6.02563 17.6696 5.99992 17.5508 6H12.7895C12.6217 6.00012 12.4589 6.05166 12.3284 6.146C12.1979 6.24035 12.1076 6.3718 12.0725 6.51843L10.0161 15.166C9.99338 15.2612 9.99473 15.3597 10.02 15.4543C10.0454 15.549 10.094 15.6374 10.1624 15.7131C10.2309 15.7888 10.3173 15.85 10.4156 15.8921C10.5138 15.9342 10.6213 15.9562 10.7303 15.9564H13.8391C13.9471 15.9565 14.0538 15.9778 14.1515 16.0189C14.2492 16.06 14.3356 16.1199 14.4044 16.1943C14.4731 16.2687 14.5226 16.3557 14.5494 16.4492C14.5761 16.5427 14.5794 16.6403 14.5589 16.735L13.7887 20.2996C13.6487 20.9506 14.6352 21.2777 15.0043 20.703L19.9028 13.0798C19.9667 12.9802 20.0003 12.8674 20 12.7526C19.9997 12.6378 19.9657 12.5252 19.9013 12.4258C19.8369 12.3265 19.7444 12.2441 19.6331 12.1867C19.5218 12.1294 19.3955 12.0992 19.267 12.0992H17.081C16.9623 12.0992 16.8453 12.0735 16.7401 12.0242C16.635 11.9749 16.5448 11.9036 16.4774 11.8163C16.4099 11.729 16.3673 11.6283 16.353 11.523C16.3387 11.4177 16.3533 11.3109 16.3955 11.2118L18.2356 6.88739Z" fill="#2E67B1"/>
<path d="M24.8068 22.4234C26.7821 20.61 28.1341 18.3236 28.7009 15.8378C29.2677 13.352 29.0255 10.7721 28.0031 8.40684C25.0683 1.62941 16.5434 -1.73927 9 0.898421L9.45521 1.94949C16.3565 -0.462704 24.1495 2.61721 26.834 8.81587C27.7691 10.9797 27.9902 13.3398 27.4709 15.6136C26.9517 17.8874 25.714 19.9786 23.9062 21.6366L23.0139 20.8555C22.92 20.7732 22.801 20.7178 22.672 20.6962C22.543 20.6747 22.4098 20.6881 22.2892 20.7346C22.1687 20.7812 22.0662 20.8588 21.9948 20.9577C21.9234 21.0566 21.8862 21.1723 21.8881 21.2902L21.9215 23.413C21.9241 23.5707 21.9961 23.721 22.1218 23.831C22.2476 23.9411 22.4167 24.0018 22.5921 24L24.9546 23.9749C25.0858 23.9734 25.2135 23.9371 25.3216 23.8704C25.4297 23.8037 25.5134 23.7097 25.5621 23.6003C25.6107 23.4908 25.6222 23.3709 25.595 23.2556C25.5677 23.1403 25.5031 23.0349 25.4091 22.9527L24.8068 22.4234Z" fill="#2E67B1"/>
<path d="M9.28173 24.7596C7.2943 23.9458 5.54838 22.6941 4.19396 21.112C2.83955 19.53 1.91714 17.6648 1.50598 15.6768C1.09482 13.6889 1.2072 11.6375 1.83348 9.69896C2.45975 7.76043 3.58118 5.99271 5.10144 4.54767L5.89151 5.26256C5.98538 5.34798 6.10431 5.4055 6.23324 5.42783C6.36217 5.45016 6.49531 5.4363 6.61579 5.38801C6.73627 5.33971 6.83868 5.25916 6.91005 5.15653C6.98142 5.05391 7.01854 4.93384 7.01671 4.81153L6.98327 2.60902C6.98218 2.52797 6.96397 2.44791 6.92969 2.37343C6.8954 2.29895 6.84572 2.2315 6.78347 2.17494C6.72122 2.11838 6.64763 2.07383 6.56691 2.04382C6.48619 2.01381 6.39991 1.99894 6.31303 2.00006L3.95186 2.02605C3.81973 2.02639 3.69073 2.06357 3.58143 2.13281C3.47212 2.20205 3.38751 2.30019 3.33845 2.41463C3.28939 2.52907 3.27814 2.65457 3.30612 2.77502C3.33411 2.89547 3.40006 3.00537 3.49551 3.09059L4.20128 3.73205C1.85019 5.96585 0.391357 8.88415 0.0681892 12C-0.254979 15.1159 0.57706 18.241 2.42548 20.8538C4.27391 23.4666 7.02693 25.4091 10.2252 26.3573C13.4235 27.3055 16.8737 27.2019 20 26.064L19.5457 24.9741C17.9047 25.5731 16.1525 25.8626 14.3907 25.8258C12.6289 25.7889 10.8924 25.4266 9.28173 24.7596Z" fill="#2E67B1"/>
</svg>
