<svg width="33" height="33" viewBox="0 0 33 33" fill="none" xmlns="http://www.w3.org/2000/svg">
<path d="M25.9001 7.04609C24.6775 5.81156 23.2214 4.83271 21.6167 4.16657C20.0121 3.50043 18.2908 3.16033 16.5534 3.16609C9.2734 3.16609 3.34007 9.09942 3.34007 16.3794C3.34007 18.7128 3.9534 20.9794 5.10007 22.9794L3.2334 29.8328L10.2334 27.9928C12.1667 29.0461 14.3401 29.6061 16.5534 29.6061C23.8334 29.6061 29.7667 23.6728 29.7667 16.3928C29.7667 12.8594 28.3934 9.53942 25.9001 7.04609ZM16.5534 27.3661C14.5801 27.3661 12.6467 26.8328 10.9534 25.8328L10.5534 25.5928L6.3934 26.6861L7.50006 22.6328L7.2334 22.2194C6.1368 20.4688 5.55463 18.4451 5.5534 16.3794C5.5534 10.3261 10.4867 5.39275 16.5401 5.39275C19.4734 5.39275 22.2334 6.53942 24.3001 8.61942C25.3236 9.63791 26.1346 10.8495 26.6862 12.1839C27.2378 13.5182 27.519 14.9489 27.5134 16.3928C27.5401 22.4461 22.6067 27.3661 16.5534 27.3661ZM22.5801 19.1528C22.2467 18.9928 20.6201 18.1928 20.3267 18.0728C20.0201 17.9661 19.8067 17.9128 19.5801 18.2328C19.3534 18.5661 18.7267 19.3128 18.5401 19.5261C18.3534 19.7528 18.1534 19.7794 17.8201 19.6061C17.4867 19.4461 16.4201 19.0861 15.1667 17.9661C14.1801 17.0861 13.5267 16.0061 13.3267 15.6728C13.1401 15.3394 13.3001 15.1661 13.4734 14.9928C13.6201 14.8461 13.8067 14.6061 13.9667 14.4194C14.1267 14.2328 14.1934 14.0861 14.3001 13.8728C14.4067 13.6461 14.3534 13.4594 14.2734 13.2994C14.1934 13.1394 13.5267 11.5128 13.2601 10.8461C12.9934 10.2061 12.7134 10.2861 12.5134 10.2728H11.8734C11.6467 10.2728 11.3001 10.3528 10.9934 10.6861C10.7001 11.0194 9.84673 11.8194 9.84673 13.4461C9.84673 15.0728 11.0334 16.6461 11.1934 16.8594C11.3534 17.0861 13.5267 20.4194 16.8334 21.8461C17.6201 22.1928 18.2334 22.3928 18.7134 22.5394C19.5001 22.7928 20.2201 22.7528 20.7934 22.6728C21.4334 22.5794 22.7534 21.8728 23.0201 21.0994C23.3001 20.3261 23.3001 19.6728 23.2067 19.5261C23.1134 19.3794 22.9134 19.3128 22.5801 19.1528Z" fill="white"/>
</svg>
