<svg width="33" height="33" viewBox="0 0 33 33" fill="none" xmlns="http://www.w3.org/2000/svg">
<path d="M4.5 15.1667C4.5 10.1387 4.5 7.624 6.06267 6.06267C7.62533 4.50133 10.1387 4.5 15.1667 4.5H17.8333C22.8613 4.5 25.376 4.5 26.9373 6.06267C28.4987 7.62533 28.5 10.1387 28.5 15.1667V17.8333C28.5 22.8613 28.5 25.376 26.9373 26.9373C25.3747 28.4987 22.8613 28.5 17.8333 28.5H15.1667C10.1387 28.5 7.624 28.5 6.06267 26.9373C4.50133 25.3747 4.5 22.8613 4.5 17.8333V15.1667Z" stroke="white" stroke-width="2"/>
<path d="M22.5 12.5C23.6046 12.5 24.5 11.6046 24.5 10.5C24.5 9.39543 23.6046 8.5 22.5 8.5C21.3954 8.5 20.5 9.39543 20.5 10.5C20.5 11.6046 21.3954 12.5 22.5 12.5Z" fill="white"/>
<path d="M16.5 20.5C18.7091 20.5 20.5 18.7091 20.5 16.5C20.5 14.2909 18.7091 12.5 16.5 12.5C14.2909 12.5 12.5 14.2909 12.5 16.5C12.5 18.7091 14.2909 20.5 16.5 20.5Z" stroke="white" stroke-width="2"/>
</svg>
