<svg width="33" height="33" viewBox="0 0 33 33" fill="none" xmlns="http://www.w3.org/2000/svg">
<path d="M25.8333 4.5C26.5406 4.5 27.2189 4.78095 27.719 5.28105C28.219 5.78115 28.5 6.45942 28.5 7.16667V25.8333C28.5 26.5406 28.219 27.2189 27.719 27.719C27.2189 28.219 26.5406 28.5 25.8333 28.5H7.16667C6.45942 28.5 5.78115 28.219 5.28105 27.719C4.78095 27.2189 4.5 26.5406 4.5 25.8333V7.16667C4.5 6.45942 4.78095 5.78115 5.28105 5.28105C5.78115 4.78095 6.45942 4.5 7.16667 4.5H25.8333ZM25.1667 25.1667V18.1C25.1667 16.9472 24.7087 15.8416 23.8936 15.0264C23.0784 14.2113 21.9728 13.7533 20.82 13.7533C19.6867 13.7533 18.3667 14.4467 17.7267 15.4867V14.0067H14.0067V25.1667H17.7267V18.5933C17.7267 17.5667 18.5533 16.7267 19.58 16.7267C20.0751 16.7267 20.5499 16.9233 20.8999 17.2734C21.25 17.6235 21.4467 18.0983 21.4467 18.5933V25.1667H25.1667ZM9.67333 11.9133C10.2674 11.9133 10.8372 11.6773 11.2573 11.2573C11.6773 10.8372 11.9133 10.2674 11.9133 9.67333C11.9133 8.43333 10.9133 7.42 9.67333 7.42C9.07571 7.42 8.50257 7.6574 8.07999 8.07999C7.6574 8.50257 7.42 9.07571 7.42 9.67333C7.42 10.9133 8.43333 11.9133 9.67333 11.9133ZM11.5267 25.1667V14.0067H7.83333V25.1667H11.5267Z" fill="white"/>
</svg>
