<svg width="38" height="38" viewBox="0 0 38 38" fill="none" xmlns="http://www.w3.org/2000/svg">
<g clip-path="url(#clip0_435_61)">
<path d="M16.3452 11.7988C14.4954 13.2013 12.745 14.7304 11.1067 16.3751C3.38722 24.0945 -0.521347 32.6961 2.37208 35.5923C5.26551 38.4857 13.8698 34.5744 21.5865 26.8577C23.2313 25.2185 24.7604 23.4672 26.1628 21.6164" stroke="black" stroke-linecap="round" stroke-linejoin="round"/>
<path d="M26.1626 21.6165C30.7144 27.6585 32.5683 33.3422 30.3209 35.5896C27.4247 38.4857 18.8232 34.5745 11.1037 26.8577C3.38973 19.1356 -0.518845 10.5367 2.37458 7.6406C4.62201 5.39588 10.3057 7.24974 16.3477 11.7989" stroke="black" stroke-linecap="round" stroke-linejoin="round"/>
<path d="M21.8011 9.79876C20.9461 9.64948 20.9461 8.42533 21.8011 8.27876C23.3116 8.01711 24.7098 7.31102 25.817 6.25073C26.9242 5.19044 27.6901 3.8241 28.0169 2.32633L28.0657 2.09019C28.2503 1.24876 29.45 1.24333 29.64 2.08205L29.7051 2.35619C30.0458 3.84654 30.819 5.20312 31.9277 6.25578C33.0363 7.30843 34.4311 8.01029 35.9371 8.27333C36.7949 8.42262 36.7949 9.6549 35.9371 9.80148C34.4311 10.0645 33.0363 10.7664 31.9277 11.819C30.819 12.8717 30.0458 14.2283 29.7051 15.7186L29.64 15.9928C29.45 16.8342 28.2503 16.8288 28.0657 15.9873L28.0114 15.7512C27.6847 14.2534 26.9188 12.8871 25.8116 11.8268C24.7044 10.7665 23.3062 10.0604 21.7957 9.79876M14.9883 21.6168C14.9883 21.9767 15.1313 22.3219 15.3858 22.5764C15.6403 22.8309 15.9855 22.9739 16.3454 22.9739C16.7054 22.9739 17.0506 22.8309 17.3051 22.5764C17.5596 22.3219 17.7026 21.9767 17.7026 21.6168C17.7026 21.2568 17.5596 20.9116 17.3051 20.6571C17.0506 20.4026 16.7054 20.2596 16.3454 20.2596C15.9855 20.2596 15.6403 20.4026 15.3858 20.6571C15.1313 20.9116 14.9883 21.2568 14.9883 21.6168Z" stroke="black" stroke-linecap="round" stroke-linejoin="round"/>
</g>
<defs>
<clipPath id="clip0_435_61">
<rect width="38" height="38" fill="white"/>
</clipPath>
</defs>
</svg>
