<svg width="27" height="29" viewBox="0 0 27 29" fill="none" xmlns="http://www.w3.org/2000/svg">
<g clip-path="url(#clip0_948_90)">
<path d="M11.1859 0.333008H0.00341797V2.61734H0.855085V23.5917C0.855085 24.8488 1.35449 26.0545 2.24345 26.9435C3.1324 27.8324 4.33808 28.3318 5.59525 28.3318C6.85242 28.3318 8.0581 27.8324 8.94705 26.9435C9.83601 26.0545 10.3354 24.8488 10.3354 23.5917V2.61734H11.1871L11.1859 0.333008ZM8.94592 23.594C8.9235 24.4665 8.56132 25.2957 7.93654 25.905C7.31176 26.5144 6.47376 26.8557 5.60102 26.8563C4.72829 26.8569 3.88981 26.5168 3.26418 25.9083C2.63855 25.2998 2.27522 24.4711 2.25158 23.5987V22.3807H4.55342V21.039H2.25158V18.6765H4.55342V17.3022H2.25158V14.9397H4.55342V13.5653H2.25158V11.2028H4.55342V9.86117H2.25158V7.49867H4.55342V6.15701H2.25158V2.59867H8.94592V23.594ZM15.3206 0.333008V2.61734H16.1723V23.5917C16.1723 24.8488 16.6717 26.0545 17.5606 26.9435C18.4496 27.8324 19.6552 28.3318 20.9124 28.3318C22.1696 28.3318 23.3753 27.8324 24.2642 26.9435C25.1532 26.0545 25.6526 24.8488 25.6526 23.5917V2.61734H26.5043V0.333008H15.3206ZM24.2607 12.5713H17.5676V11.2133H19.8694V9.87167H17.5676V7.50917H19.8694V6.16751H17.5676V2.60917H24.2607V12.5713Z" fill="black"/>
</g>
<defs>
<clipPath id="clip0_948_90">
<rect width="26.84" height="28" fill="white" transform="translate(0 0.333008)"/>
</clipPath>
</defs>
</svg>
