<svg width="30" height="34" viewBox="0 0 30 34" fill="none" xmlns="http://www.w3.org/2000/svg">
<path d="M9.33962 13.9487C9.42563 14.2074 9.40547 14.4896 9.28357 14.7334C9.16168 14.9772 8.94801 15.1626 8.68949 15.249C8.37363 15.3489 8.08067 15.5103 7.8275 15.7239C7.57432 15.9375 7.36593 16.1991 7.21435 16.4937C6.83168 17.2117 6.57245 18.3927 6.81317 20.3204C6.84672 20.5913 6.77129 20.8645 6.60345 21.0798C6.43561 21.2951 6.18912 21.4349 5.91821 21.4684C5.64729 21.502 5.37414 21.4265 5.15885 21.2587C4.94356 21.0909 4.80375 20.8444 4.77019 20.5735C4.49862 18.3865 4.75168 16.7385 5.39975 15.5267C6.05811 14.2923 7.06005 13.6237 8.0373 13.2986C8.1655 13.2557 8.30089 13.2385 8.43574 13.2479C8.5706 13.2574 8.70226 13.2934 8.82321 13.3537C8.94416 13.4141 9.05202 13.4977 9.14063 13.5998C9.22924 13.7019 9.29686 13.8205 9.33962 13.9487ZM19.4907 2.90475C19.6223 2.86485 19.7446 2.79896 19.8504 2.71097C19.9561 2.62299 20.0431 2.51469 20.1062 2.39249C20.1694 2.27029 20.2074 2.13666 20.2179 1.99952C20.2285 1.86238 20.2115 1.72451 20.1679 1.59406C20.1243 1.46361 20.0549 1.34324 19.964 1.24006C19.873 1.13687 19.7623 1.05298 19.6384 0.993337C19.5144 0.933695 19.3798 0.899515 19.2424 0.892821C19.105 0.886126 18.9677 0.907052 18.8385 0.954361C16.9108 1.59626 15.7072 3.18044 14.9995 4.87777C14.904 5.10702 14.8168 5.33966 14.7382 5.57522C14.3527 4.84517 13.8596 4.17728 13.2754 3.59397C12.4839 2.80247 11.5392 2.18076 10.4992 1.76687C9.45915 1.35298 8.34562 1.15562 7.2267 1.18684C6.03342 1.21976 5.08086 2.17438 5.04794 3.3656C5.01648 4.4994 5.21974 5.62746 5.64494 6.67897C6.07015 7.73049 6.70813 8.68275 7.51884 9.476C5.79035 9.84974 4.22822 10.7703 3.0639 12.1014C1.89959 13.4325 1.19502 15.1032 1.05458 16.8661L1.04224 17.0183C0.770624 20.4072 1.49272 23.8018 3.12018 26.7867L3.86084 28.1405C3.88004 28.1761 3.90198 28.2104 3.92667 28.2433L5.98404 31.1278C6.45034 31.7808 7.0533 32.3244 7.75099 32.7208C8.44868 33.1171 9.22434 33.3567 10.024 33.4229C10.8237 33.4891 11.6282 33.3803 12.3816 33.104C13.1349 32.8277 13.819 32.3907 14.3864 31.8232C14.4735 31.736 14.5769 31.6669 14.6908 31.6197C14.8046 31.5726 14.9266 31.5483 15.0499 31.5483C15.1731 31.5483 15.2951 31.5726 15.409 31.6197C15.5228 31.6669 15.6262 31.736 15.7134 31.8232C16.2807 32.3907 16.9648 32.8277 17.7181 33.104C18.4715 33.3803 19.276 33.4891 20.0757 33.4229C20.8754 33.3567 21.651 33.1171 22.3487 32.7208C23.0464 32.3244 23.6494 31.7808 24.1157 31.1278L26.173 28.2454L26.2389 28.1405L26.9775 26.7867C28.6049 23.8018 29.327 20.4072 29.0554 17.0183L29.0451 16.8661C28.9541 15.73 28.628 14.6252 28.0876 13.6216C27.5472 12.6181 26.8043 11.7378 25.9059 11.0365C25.0074 10.3352 23.9731 9.82809 22.8685 9.54743C21.7638 9.26676 20.6129 9.21862 19.4886 9.40605L16.0796 9.97388C16.1001 8.57281 16.347 6.99686 16.9005 5.6678C17.4765 4.27907 18.3324 3.29154 19.4886 2.90475M12.4133 9.70642L12.0965 9.65293C10.889 9.41805 9.77925 8.8277 8.90963 7.95766C8.31619 7.36394 7.8501 6.6554 7.53986 5.87539C7.22962 5.09537 7.08176 4.26027 7.10531 3.42115C7.10685 3.37417 7.12621 3.32953 7.15945 3.29629C7.19268 3.26305 7.23732 3.2437 7.2843 3.24216C8.12357 3.21887 8.95876 3.36706 9.73878 3.67765C10.5188 3.98825 11.2273 4.45472 11.8208 5.04853C13.0696 6.29736 13.6724 7.94531 13.6251 9.58504C13.6236 9.63202 13.6042 9.67666 13.571 9.7099C13.5378 9.74314 13.4931 9.76249 13.4461 9.76403C13.1009 9.77376 12.7554 9.75449 12.4133 9.70642ZM11.7385 11.6794L12.0944 11.7391L13.6971 12.0066C14.5928 12.1558 15.5069 12.1558 16.4026 12.0066L19.826 11.4346C20.6693 11.294 21.5327 11.33 22.3613 11.5406C23.1899 11.7511 23.9658 12.1315 24.6397 12.6576C25.3136 13.1837 25.8708 13.8441 26.2761 14.5969C26.6813 15.3497 26.9258 16.1784 26.9939 17.0307L27.0063 17.1829C27.2457 20.1737 26.6079 23.1694 25.1711 25.8033L24.4634 27.0995L22.441 29.9304C22.1485 30.3404 21.7702 30.6817 21.3324 30.9306C20.8946 31.1795 20.4079 31.33 19.906 31.3718C19.4042 31.4135 18.8992 31.3453 18.4264 31.1721C17.9535 30.9988 17.5241 30.7247 17.1679 30.3686C16.8897 30.0902 16.5594 29.8693 16.1958 29.7186C15.8322 29.5679 15.4424 29.4903 15.0488 29.4903C14.6552 29.4903 14.2655 29.5679 13.9019 29.7186C13.5383 29.8693 13.2079 30.0902 12.9297 30.3686C12.5736 30.7243 12.1443 30.9982 11.6716 31.1712C11.199 31.3442 10.6943 31.4122 10.1927 31.3705C9.69113 31.3288 9.20463 31.1784 8.76703 30.9297C8.32944 30.681 7.95125 30.34 7.65875 29.9304L5.63635 27.0995L4.92861 25.8033C3.4918 23.1694 2.85406 20.1737 3.09344 17.1829L3.10578 17.0307C3.17396 16.1786 3.41836 15.3501 3.8235 14.5974C4.22864 13.8448 4.78569 13.1845 5.45935 12.6585C6.13302 12.1324 6.90861 11.7519 7.73698 11.5413C8.56536 11.3306 9.42846 11.2943 10.2716 11.4346L11.7385 11.6794Z" fill="black"/>
</svg>
