<svg width="35" height="31" viewBox="0 0 35 31" fill="none" xmlns="http://www.w3.org/2000/svg">
<path d="M23.9253 0V7.51987L19.2847 9.96875V5.80112L16.9644 7.0895L11.5503 9.96875V5.80112L9.22998 7.0895L1.49561 11.2145L0.722168 11.6009V30.25H34.7534V0H23.9253ZM27.019 2.75H31.6597V27.5H3.81592V13.1051L8.45654 10.6562V14.8239L10.7769 13.5355L16.1909 10.6562V14.8239L18.5112 13.5355L26.2456 9.4105L27.019 9.02412V2.75ZM6.90967 16.5V19.25H10.0034V16.5H6.90967ZM13.0972 16.5V19.25H16.1909V16.5H13.0972ZM19.2847 16.5V19.25H22.3784V16.5H19.2847ZM25.4722 16.5V19.25H28.5659V16.5H25.4722ZM6.90967 22V24.75H10.0034V22H6.90967ZM13.0972 22V24.75H16.1909V22H13.0972ZM19.2847 22V24.75H22.3784V22H19.2847ZM25.4722 22V24.75H28.5659V22H25.4722Z" fill="black"/>
</svg>
